<svg width="20" height="20" viewBox="0 0 20 20" fill="none" xmlns="http://www.w3.org/2000/svg">
<g clip-path="url(#clip0_151_5501)">
<path fill-rule="evenodd" clip-rule="evenodd" d="M15.2548 16.6959V2.12065C15.2548 1.55826 14.7979 1.10132 14.2355 1.10132H1.01933C0.456942 1.10132 0 1.55826 0 2.12065V17.8793C0 18.4417 0.456942 18.8986 1.01933 18.8986H16.4968L16.2156 18.676C15.6063 18.1956 15.2548 17.4692 15.2548 16.6959ZM15.5829 7.24074V16.6959C15.5829 17.9027 16.5671 18.8986 17.7856 18.8986C19.0041 18.8986 20 17.9027 20 16.6959V7.69769C20 7.43992 19.7891 7.24074 19.5431 7.24074H15.5829ZM12.5718 16.8717C12.8412 16.8717 13.0639 16.6491 13.0639 16.3796V15.1962C13.0639 14.9267 12.8412 14.7158 12.5718 14.7158H10.1347C9.86526 14.7158 9.64265 14.9267 9.64265 15.1962V16.3796C9.64265 16.6491 9.86526 16.8717 10.1347 16.8717H12.5718ZM10.1347 15.0205H12.5718C12.6655 15.0205 12.7475 15.1025 12.7475 15.1962V16.3796C12.7475 16.4733 12.6655 16.5553 12.5718 16.5553H10.1347C10.0293 16.5553 9.95899 16.4733 9.95899 16.3796V15.1962C9.95899 15.1025 10.0293 15.0205 10.1347 15.0205ZM7.24077 16.8717C7.51025 16.8717 7.73286 16.6491 7.73286 16.3796V15.1962C7.73286 14.9267 7.51025 14.7158 7.24077 14.7158H2.68307C2.41359 14.7158 2.19098 14.9267 2.19098 15.1962V16.3796C2.19098 16.6491 2.41359 16.8717 2.68307 16.8717H7.24077ZM2.68307 15.0205H7.24077C7.33451 15.0205 7.41652 15.1025 7.41652 15.1962V16.3796C7.41652 16.4733 7.33451 16.5553 7.24077 16.5553H2.68307C2.58934 16.5553 2.50732 16.4733 2.50732 16.3796V15.1962C2.50732 15.1025 2.58934 15.0205 2.68307 15.0205ZM12.15 13.181C12.232 13.181 12.3023 13.1107 12.3023 13.017C12.3023 12.9349 12.232 12.8646 12.15 12.8646H3.21031C3.1283 12.8646 3.058 12.9349 3.058 13.017C3.058 13.1107 3.1283 13.181 3.21031 13.181H12.15ZM12.15 11.3298C12.232 11.3298 12.3023 11.2595 12.3023 11.1775C12.3023 11.0837 12.232 11.0134 12.15 11.0134H3.21031C3.1283 11.0134 3.058 11.0837 3.058 11.1775C3.058 11.2595 3.1283 11.3298 3.21031 11.3298H12.15ZM12.15 9.47859C12.232 9.47859 12.3023 9.40829 12.3023 9.32627C12.3023 9.24426 12.232 9.17396 12.15 9.17396H3.21031C3.1283 9.17396 3.058 9.24426 3.058 9.32627C3.058 9.40829 3.1283 9.47859 3.21031 9.47859H12.15ZM12.15 7.6391C12.6538 7.6391 13.0639 7.22903 13.0639 6.72522V4.04215C13.0639 3.53834 12.6538 3.12827 12.15 3.12827H3.21031C2.7065 3.12827 2.29643 3.53834 2.29643 4.04215V6.72522C2.29643 7.22903 2.7065 7.6391 3.21031 7.6391H12.15ZM3.09315 3.45633V3.43289H12.15C12.478 3.43289 12.7475 3.70237 12.7475 4.04215V6.72522C12.7475 7.05328 12.478 7.32276 12.15 7.32276H3.21031C2.88225 7.32276 2.61277 7.05328 2.61277 6.72522V4.04215C2.61277 3.74924 2.82367 3.50319 3.09315 3.45633Z" fill="#7A7A7A"/>
</g>
<defs>
<clipPath id="clip0_151_5501">
<rect width="20" height="20" fill="white"/>
</clipPath>
</defs>
</svg>
