<svg width="23" height="21" viewBox="0 0 23 21" fill="none" xmlns="http://www.w3.org/2000/svg">
<g clip-path="url(#clip0_102_1258)">
<path fill-rule="evenodd" clip-rule="evenodd" d="M3 7V5H1C0.45 5 0 4.55 0 4C0 3.45 0.45 3 1 3H3V1C3 0.45 3.45 0 4 0C4.55 0 5 0.45 5 1V3H7C7.55 3 8 3.45 8 4C8 4.55 7.55 5 7 5H5V7C5 7.55 4.55 8 4 8C3.45 8 3 7.55 3 7ZM13 16C11.3431 16 10 14.6569 10 13C10 11.3431 11.3431 10 13 10C14.6569 10 16 11.3431 16 13C16 14.6569 14.6569 16 13 16ZM21 5C22.1 5 23 5.9 23 7V19C23 20.1 22.1 21 21 21H5C3.9 21 3 20.1 3 19V8.72C3.3 8.89 3.63 9 4 9C5.1 9 6 8.1 6 7V6H7C8.1 6 9 5.1 9 4C9 3.63 8.89 3.3 8.72 3H15.12C15.68 3 16.22 3.24 16.59 3.65L17.83 5H21ZM13 18C15.76 18 18 15.76 18 13C18 10.24 15.76 8 13 8C10.24 8 8 10.24 8 13C8 15.76 10.24 18 13 18Z" fill="#1D1D1D"/>
</g>
<defs>
<clipPath id="clip0_102_1258">
<rect width="23" height="21" fill="white"/>
</clipPath>
</defs>
</svg>
