<svg width="21" height="21" viewBox="0 0 21 21" fill="none" xmlns="http://www.w3.org/2000/svg">
<path d="M17.7188 3.6717H15.6089C15.6089 3.48849 15.5706 3.30731 15.4964 3.13981C15.4222 2.97231 15.3137 2.8222 15.178 2.69914C15.0423 2.57609 14.8823 2.48281 14.7083 2.42532C14.5344 2.36782 14.3503 2.34738 14.168 2.36531C13.8373 2.40624 13.5335 2.56801 13.3149 2.8195C13.0963 3.07099 12.9784 3.39443 12.9839 3.7276V4.32795C12.9838 4.62883 13.0872 4.9206 13.2766 5.1544C13.4659 5.3882 13.7299 5.54983 14.0243 5.61223C14.1084 5.6282 14.183 5.67641 14.2321 5.74658C14.2812 5.81675 14.301 5.90334 14.2872 5.98787C14.2734 6.07241 14.2271 6.14821 14.1582 6.19911C14.0893 6.25 14.0033 6.27197 13.9184 6.26033C13.4705 6.17222 13.0671 5.9314 12.777 5.57899C12.4869 5.22658 12.3281 4.78441 12.3277 4.32795V3.6717H8.67234C8.67067 3.49801 8.63455 3.32638 8.56606 3.16675C8.49758 3.00712 8.39811 2.86266 8.2734 2.74175C8.14869 2.62084 8.00122 2.52588 7.83955 2.46237C7.67788 2.39886 7.50521 2.36806 7.33155 2.37176C7.15789 2.37546 6.98669 2.41359 6.82787 2.48393C6.66905 2.55427 6.52577 2.65542 6.40632 2.78153C6.28687 2.90764 6.19364 3.0562 6.13202 3.21861C6.0704 3.38101 6.04162 3.55402 6.04734 3.72763V4.32795C6.04729 4.62883 6.1506 4.9206 6.34 5.1544C6.52939 5.3882 6.79336 5.54983 7.0877 5.61223C7.17185 5.6282 7.24644 5.67641 7.29555 5.74658C7.34467 5.81675 7.36443 5.90334 7.35062 5.98787C7.33682 6.07241 7.29053 6.1482 7.22164 6.1991C7.15275 6.25 7.0667 6.27197 6.98184 6.26033C6.53396 6.17222 6.13055 5.93141 5.84044 5.57899C5.55033 5.22658 5.39152 4.78441 5.39109 4.32795V3.6717H3.28125C2.7594 3.67267 2.25921 3.8804 1.89021 4.24941C1.5212 4.61841 1.31347 5.1186 1.3125 5.64045V7.46811H19.6875V5.64045C19.6865 5.1186 19.4788 4.61841 19.1098 4.24941C18.7408 3.8804 18.2406 3.67267 17.7188 3.6717ZM6.70359 3.6717C6.7061 3.4993 6.77634 3.33481 6.89914 3.21378C7.02194 3.09275 7.18744 3.0249 7.35986 3.02491C7.53228 3.02491 7.69777 3.09276 7.82057 3.2138C7.94336 3.33483 8.0136 3.49933 8.01609 3.67173L6.70359 3.6717ZM13.6402 3.6717C13.6427 3.4993 13.7129 3.33481 13.8357 3.21378C13.9585 3.09275 14.124 3.0249 14.2964 3.02491C14.4688 3.02491 14.6343 3.09276 14.7571 3.2138C14.8799 3.33483 14.9502 3.49933 14.9527 3.67173L13.6402 3.6717Z" fill="#7A7A7A"/>
<path d="M1.3125 16.672C1.31291 17.1941 1.52047 17.6946 1.88959 18.0637C2.25871 18.4328 2.75923 18.6404 3.28125 18.6408H17.7188C18.2408 18.6404 18.7413 18.4328 19.1104 18.0637C19.4795 17.6946 19.6871 17.1941 19.6875 16.672V8.12439H1.3125V16.672ZM15.75 9.44673C16.0092 9.44965 16.2567 9.55465 16.4389 9.73894C16.6211 9.92324 16.7233 10.172 16.7233 10.4311C16.7233 10.6903 16.6211 10.939 16.4389 11.1233C16.2567 11.3076 16.0091 11.4126 15.75 11.4155C15.4908 11.4126 15.2433 11.3076 15.061 11.1233C14.8788 10.939 14.7766 10.6903 14.7766 10.4311C14.7766 10.1719 14.8788 9.92321 15.0611 9.73892C15.2433 9.55464 15.4908 9.44965 15.75 9.44673ZM15.75 12.3999C16.0092 12.4028 16.2567 12.5078 16.4389 12.6921C16.6211 12.8764 16.7233 13.1251 16.7233 13.3842C16.7233 13.6434 16.6211 13.8921 16.4389 14.0764C16.2567 14.2607 16.0091 14.3657 15.75 14.3686C15.4908 14.3657 15.2433 14.2607 15.061 14.0764C14.8788 13.8921 14.7766 13.6434 14.7766 13.3842C14.7766 13.125 14.8788 12.8763 15.0611 12.692C15.2433 12.5078 15.4908 12.4028 15.75 12.3999ZM15.75 15.353C16.0092 15.3559 16.2567 15.4609 16.4389 15.6452C16.6211 15.8295 16.7233 16.0782 16.7233 16.3374C16.7233 16.5965 16.6211 16.8453 16.4389 17.0295C16.2567 17.2138 16.0091 17.3188 15.75 17.3217C15.4908 17.3188 15.2433 17.2138 15.061 17.0295C14.8788 16.8452 14.7766 16.5965 14.7766 16.3373C14.7766 16.0782 14.8788 15.8295 15.0611 15.6452C15.2433 15.4609 15.4908 15.3559 15.75 15.353ZM10.5 9.44673C10.7592 9.44965 11.0067 9.55465 11.1889 9.73894C11.3711 9.92324 11.4733 10.172 11.4733 10.4311C11.4733 10.6903 11.3711 10.939 11.1889 11.1233C11.0067 11.3076 10.7591 11.4126 10.5 11.4155C10.2408 11.4126 9.99327 11.3076 9.81105 11.1233C9.62882 10.939 9.52662 10.6903 9.52663 10.4311C9.52663 10.1719 9.62884 9.92321 9.81107 9.73892C9.9933 9.55464 10.2408 9.44965 10.5 9.44673ZM10.5 12.3999C10.7592 12.4028 11.0067 12.5078 11.1889 12.6921C11.3711 12.8764 11.4733 13.1251 11.4733 13.3842C11.4733 13.6434 11.3711 13.8921 11.1889 14.0764C11.0067 14.2607 10.7591 14.3657 10.5 14.3686C10.2408 14.3657 9.99327 14.2607 9.81105 14.0764C9.62882 13.8921 9.52662 13.6434 9.52663 13.3842C9.52663 13.125 9.62884 12.8763 9.81107 12.692C9.9933 12.5078 10.2408 12.4028 10.5 12.3999ZM10.5 15.353C10.7592 15.3559 11.0067 15.4609 11.1889 15.6452C11.3711 15.8295 11.4733 16.0782 11.4733 16.3374C11.4733 16.5965 11.3711 16.8453 11.1889 17.0295C11.0067 17.2138 10.7591 17.3188 10.5 17.3217C10.2408 17.3188 9.99327 17.2138 9.81105 17.0295C9.62882 16.8452 9.52662 16.5965 9.52663 16.3373C9.52663 16.0782 9.62884 15.8295 9.81107 15.6452C9.9933 15.4609 10.2408 15.3559 10.5 15.353ZM5.25 9.44673C5.50915 9.44965 5.7567 9.55465 5.93892 9.73894C6.12115 9.92324 6.22335 10.172 6.22334 10.4311C6.22334 10.6903 6.12113 10.939 5.9389 11.1233C5.75667 11.3076 5.50912 11.4126 5.24997 11.4155C4.99082 11.4126 4.74327 11.3076 4.56105 11.1233C4.37882 10.939 4.27662 10.6903 4.27663 10.4311C4.27663 10.1719 4.37884 9.92321 4.56107 9.73892C4.7433 9.55464 4.99085 9.44965 5.25 9.44673ZM5.25 12.3999C5.50915 12.4028 5.7567 12.5078 5.93892 12.6921C6.12115 12.8764 6.22335 13.1251 6.22334 13.3842C6.22334 13.6434 6.12113 13.8921 5.9389 14.0764C5.75667 14.2607 5.50912 14.3657 5.24997 14.3686C4.99082 14.3657 4.74327 14.2607 4.56105 14.0764C4.37882 13.8921 4.27662 13.6434 4.27663 13.3842C4.27663 13.125 4.37884 12.8763 4.56107 12.692C4.7433 12.5078 4.99085 12.4028 5.25 12.3999ZM5.25 15.353C5.50915 15.3559 5.7567 15.4609 5.93892 15.6452C6.12115 15.8295 6.22335 16.0782 6.22334 16.3374C6.22334 16.5965 6.12113 16.8453 5.9389 17.0295C5.75667 17.2138 5.50912 17.3188 5.24997 17.3217C4.99082 17.3188 4.74327 17.2138 4.56105 17.0295C4.37882 16.8452 4.27662 16.5965 4.27663 16.3373C4.27663 16.0782 4.37884 15.8295 4.56107 15.6452C4.7433 15.4609 4.99085 15.3559 5.25 15.353Z" fill="#7A7A7A"/>
<path d="M5.25003 10.7592C5.33625 10.758 5.41853 10.7229 5.47907 10.6615C5.53961 10.6001 5.57355 10.5173 5.57355 10.4311C5.57355 10.3449 5.53961 10.2621 5.47907 10.2007C5.41853 10.1393 5.33625 10.1042 5.25003 10.103C5.16381 10.1042 5.08153 10.1393 5.02099 10.2007C4.96045 10.2621 4.92651 10.3449 4.92651 10.4311C4.92651 10.5173 4.96045 10.6001 5.02099 10.6615C5.08153 10.7229 5.16381 10.758 5.25003 10.7592Z" fill="#7A7A7A"/>
<path d="M5.25003 13.7123C5.33625 13.7111 5.41853 13.676 5.47907 13.6146C5.53961 13.5532 5.57355 13.4704 5.57355 13.3842C5.57355 13.298 5.53961 13.2152 5.47907 13.1538C5.41853 13.0924 5.33625 13.0573 5.25003 13.0561C5.16381 13.0573 5.08153 13.0924 5.02099 13.1538C4.96045 13.2152 4.92651 13.298 4.92651 13.3842C4.92651 13.4704 4.96045 13.5532 5.02099 13.6146C5.08153 13.676 5.16381 13.7111 5.25003 13.7123Z" fill="#7A7A7A"/>
<path d="M5.25003 16.6655C5.33625 16.6642 5.41853 16.6291 5.47907 16.5677C5.53961 16.5063 5.57355 16.4236 5.57355 16.3373C5.57355 16.2511 5.53961 16.1683 5.47907 16.1069C5.41853 16.0455 5.33625 16.0104 5.25003 16.0092C5.16381 16.0104 5.08153 16.0455 5.02099 16.1069C4.96045 16.1683 4.92651 16.2511 4.92651 16.3373C4.92651 16.4236 4.96045 16.5063 5.02099 16.5677C5.08153 16.6291 5.16381 16.6642 5.25003 16.6655Z" fill="#7A7A7A"/>
<path d="M10.5 16.6655C10.5863 16.6642 10.6685 16.6291 10.7291 16.5677C10.7896 16.5063 10.8235 16.4236 10.8235 16.3373C10.8235 16.2511 10.7896 16.1683 10.7291 16.1069C10.6685 16.0455 10.5863 16.0104 10.5 16.0092C10.4138 16.0104 10.3315 16.0455 10.271 16.1069C10.2105 16.1683 10.1765 16.2511 10.1765 16.3373C10.1765 16.4236 10.2105 16.5063 10.271 16.5677C10.3315 16.6291 10.4138 16.6642 10.5 16.6655Z" fill="#7A7A7A"/>
<path d="M10.5 13.7123C10.5863 13.7111 10.6685 13.676 10.7291 13.6146C10.7896 13.5532 10.8235 13.4704 10.8235 13.3842C10.8235 13.298 10.7896 13.2152 10.7291 13.1538C10.6685 13.0924 10.5863 13.0573 10.5 13.0561C10.4138 13.0573 10.3315 13.0924 10.271 13.1538C10.2105 13.2152 10.1765 13.298 10.1765 13.3842C10.1765 13.4704 10.2105 13.5532 10.271 13.6146C10.3315 13.676 10.4138 13.7111 10.5 13.7123Z" fill="#7A7A7A"/>
<path d="M10.5 10.7592C10.5863 10.758 10.6685 10.7229 10.7291 10.6615C10.7896 10.6001 10.8235 10.5173 10.8235 10.4311C10.8235 10.3449 10.7896 10.2621 10.7291 10.2007C10.6685 10.1393 10.5863 10.1042 10.5 10.103C10.4138 10.1042 10.3315 10.1393 10.271 10.2007C10.2105 10.2621 10.1765 10.3449 10.1765 10.4311C10.1765 10.5173 10.2105 10.6001 10.271 10.6615C10.3315 10.7229 10.4138 10.758 10.5 10.7592Z" fill="#7A7A7A"/>
<path d="M15.75 10.7592C15.8363 10.758 15.9185 10.7229 15.9791 10.6615C16.0396 10.6001 16.0735 10.5173 16.0735 10.4311C16.0735 10.3449 16.0396 10.2621 15.9791 10.2007C15.9185 10.1393 15.8363 10.1042 15.75 10.103C15.6638 10.1042 15.5815 10.1393 15.521 10.2007C15.4605 10.2621 15.4265 10.3449 15.4265 10.4311C15.4265 10.5173 15.4605 10.6001 15.521 10.6615C15.5815 10.7229 15.6638 10.758 15.75 10.7592Z" fill="#7A7A7A"/>
<path d="M15.75 13.7123C15.8363 13.7111 15.9185 13.676 15.9791 13.6146C16.0396 13.5532 16.0735 13.4704 16.0735 13.3842C16.0735 13.298 16.0396 13.2152 15.9791 13.1538C15.9185 13.0924 15.8363 13.0573 15.75 13.0561C15.6638 13.0573 15.5815 13.0924 15.521 13.1538C15.4605 13.2152 15.4265 13.298 15.4265 13.3842C15.4265 13.4704 15.4605 13.5532 15.521 13.6146C15.5815 13.676 15.6638 13.7111 15.75 13.7123Z" fill="#7A7A7A"/>
<path d="M15.75 16.6655C15.8363 16.6642 15.9185 16.6291 15.9791 16.5677C16.0396 16.5063 16.0735 16.4236 16.0735 16.3373C16.0735 16.2511 16.0396 16.1683 15.9791 16.1069C15.9185 16.0455 15.8363 16.0104 15.75 16.0092C15.6638 16.0104 15.5815 16.0455 15.521 16.1069C15.4605 16.1683 15.4265 16.2511 15.4265 16.3373C15.4265 16.4236 15.4605 16.5063 15.521 16.5677C15.5815 16.6291 15.6638 16.6642 15.75 16.6655Z" fill="#7A7A7A"/>
</svg>
