<svg width="20" height="20" viewBox="0 0 20 20" fill="none" xmlns="http://www.w3.org/2000/svg">
<g clip-path="url(#clip0_151_5498)">
<path d="M19.7591 7.7826C19.7227 7.6664 19.6518 7.56406 19.5557 7.48927C19.4596 7.41448 19.3429 7.3708 19.2214 7.36406L19.2104 7.36335L13.8585 6.97526C13.5891 6.9529 13.331 6.85679 13.1126 6.69747C12.8942 6.53815 12.7238 6.32177 12.6203 6.07205L10.5806 1.11141C10.5334 0.996478 10.4532 0.898178 10.35 0.829028C10.2468 0.759878 10.1253 0.723008 10.0011 0.723114C9.87688 0.72322 9.7555 0.760297 9.65242 0.829623C9.54934 0.898949 9.46923 0.997386 9.42229 1.1124L7.37764 6.07919C7.27447 6.33049 7.10317 6.54799 6.88304 6.70718C6.66291 6.86636 6.4027 6.96091 6.13173 6.98017L0.77779 7.3683C0.656185 7.37572 0.539722 7.41999 0.4439 7.49523C0.348077 7.57047 0.277439 7.67311 0.241384 7.78948C0.199726 7.90534 0.194268 8.03112 0.225734 8.15015C0.2572 8.26918 0.324104 8.37583 0.417573 8.45596L4.54152 11.8649C4.75172 12.0402 4.90878 12.2706 4.99498 12.5304C5.08118 12.7901 5.09308 13.0688 5.02935 13.3349L3.75957 18.5242C3.73261 18.6104 3.72671 18.7018 3.7424 18.7907C3.75808 18.8797 3.79487 18.9635 3.84969 19.0353C3.9059 19.1089 3.97801 19.1689 4.06064 19.2107C4.14327 19.2526 4.23428 19.2752 4.32688 19.2769C4.43639 19.2771 4.54336 19.244 4.63364 19.182L4.65242 19.1699L9.17264 16.358C9.40222 16.2139 9.66753 16.1368 9.93859 16.1355C10.2097 16.1343 10.4757 16.2088 10.7066 16.3508L15.2985 19.1729C15.3898 19.2358 15.4975 19.2705 15.6083 19.2727C15.6945 19.2703 15.7792 19.2487 15.8561 19.2096C15.933 19.1704 16.0003 19.1147 16.053 19.0464C16.1136 18.97 16.156 18.8807 16.1769 18.7855C16.1978 18.6902 16.1968 18.5914 16.1739 18.4966L14.9103 13.3358C14.8455 13.0677 14.8577 12.7868 14.9454 12.5254C15.033 12.2639 15.1926 12.0325 15.4058 11.8576L19.5826 8.44647C19.6758 8.36674 19.7426 8.26056 19.7741 8.142C19.8057 8.02345 19.8004 7.89811 19.7591 7.7826Z" fill="#7A7A7A"/>
</g>
<defs>
<clipPath id="clip0_151_5498">
<rect width="20" height="20" fill="white"/>
</clipPath>
</defs>
</svg>
