<svg width="27" height="27" viewBox="0 0 27 27" fill="none" xmlns="http://www.w3.org/2000/svg">
<g clip-path="url(#clip0_42_3098)">
<path d="M5.96482 0.938568C3.19472 0.938568 0.938602 3.19474 0.938602 5.96478C0.938602 8.46765 2.7785 10.5549 5.19117 10.9272C5.14259 11.1701 5.12438 11.455 5.12739 11.8252C5.12264 12.4514 5.18388 12.8715 5.34002 13.1729C5.50532 13.492 5.76159 13.6368 6.00816 13.7413C6.21557 13.8291 6.3621 13.881 6.52992 14.0259C6.69775 14.1707 6.89675 14.4227 7.1081 14.9434C7.31944 15.4641 7.35311 15.7832 7.33382 16.0041C7.31451 16.2251 7.2414 16.3652 7.15472 16.5758C7.04963 16.8313 6.97855 17.1113 7.08684 17.4565C7.19509 17.8018 7.44107 18.1328 7.88992 18.5876C7.91683 18.6148 7.93839 18.6363 7.96434 18.662C7.50714 18.836 7.10595 18.9466 6.78671 18.9466C6.78759 18.7153 6.60095 18.5271 6.36963 18.5262H1.35568C1.12436 18.5271 0.937716 18.7153 0.938602 18.9466V25.224C0.939427 25.4541 1.12556 25.6403 1.35568 25.6411H6.36963C6.59975 25.6403 6.7859 25.4541 6.78671 25.224H7.21933C7.71934 25.224 9.32961 25.4286 10.8545 25.6378C11.6169 25.7424 12.371 25.85 12.9906 25.929C13.6101 26.0079 14.0696 26.0615 14.353 26.0615C15.0685 26.0615 15.8161 25.6409 16.6559 25.0727C17.4958 24.5046 18.3953 23.7584 19.2304 23.0168C20.8963 21.5372 22.2782 20.0865 22.3045 20.0588C22.8495 19.5141 22.7942 18.7663 22.4403 18.2482C22.3603 18.1312 22.265 18.0318 22.1549 17.9456C22.2887 17.7334 22.3645 17.5357 22.3847 17.3331C22.4155 17.0231 22.3073 16.7813 22.2358 16.6036C22.1641 16.4259 22.1108 16.2891 22.1058 16.072C22.101 15.855 22.1482 15.5479 22.3503 15.0735C22.5706 14.5564 22.7739 14.3041 22.9465 14.1583C23.1191 14.0126 23.2762 13.9593 23.4911 13.8615C23.7061 13.7637 23.9781 13.6183 24.1585 13.2498C24.3093 12.9416 24.382 12.4937 24.3875 11.8252C24.3827 11.3016 24.3416 10.9293 24.2468 10.6336L24.4177 10.4619L25.0384 11.0834C25.292 11.3373 25.7265 11.1755 25.7524 10.8176L26.0599 6.83492C26.0809 6.57741 25.8676 6.36086 25.6101 6.38186L22.3683 6.63947C22.3873 6.53439 22.3969 6.42194 22.3814 6.2919C22.3306 5.87693 22.0647 5.49406 21.5063 4.94744C21.0498 4.50041 20.7176 4.25433 20.372 4.14681C20.0265 4.03935 19.747 4.11121 19.4913 4.2155C19.28 4.30175 19.1391 4.37531 18.9164 4.3946C18.6936 4.41391 18.3691 4.37878 17.8459 4.16889C17.3227 3.95825 17.0714 3.75834 16.925 3.5907C16.7786 3.42305 16.7265 3.27648 16.6347 3.06813C16.5427 2.85975 16.4078 2.58758 16.0475 2.40734C15.7239 2.24543 15.3145 2.18847 14.6744 2.19389C14.0344 2.19864 13.6051 2.27222 13.3054 2.4286C12.9378 2.62041 12.8188 2.88929 12.7305 3.0992C12.6422 3.30911 12.5926 3.46067 12.4492 3.63077C12.3056 3.80088 12.0535 4.005 11.5341 4.2245C11.1977 4.36661 10.9542 4.42983 10.7571 4.4543C10.1031 2.37746 8.16797 0.938568 5.96482 0.938568ZM5.955 3.02478C6.19267 3.02011 6.38664 3.21399 6.3819 3.45167V5.96478C6.3811 6.0751 6.33659 6.18067 6.25841 6.25837L5.00308 7.51615C4.60734 7.9288 3.99696 7.31759 4.41017 6.92243L5.54447 5.78814V3.45167C5.53992 3.22042 5.72376 3.02953 5.955 3.02478ZM14.681 3.03132C15.3074 3.03132 15.5562 3.09659 15.6729 3.15481C15.7807 3.2086 15.8178 3.29218 15.8676 3.40506C15.9409 3.57143 16.0451 3.85551 16.2945 4.14108C16.5438 4.42665 16.9257 4.70243 17.5343 4.94744C18.1428 5.19245 18.6103 5.25987 18.9883 5.22712C19.3664 5.19436 19.6363 5.05972 19.8053 4.99078C19.9596 4.93824 19.9996 4.90866 20.1242 4.94744C20.2488 4.98621 20.5077 5.13914 20.9216 5.54443C21.4278 6.04002 21.5347 6.27184 21.5497 6.39413C21.5623 6.50269 21.5065 6.60935 21.4475 6.75805C21.2162 6.89937 21.1781 7.21984 21.3698 7.41147L21.9913 8.03219L19.5853 10.4365C19.0442 8.55627 17.4385 7.12628 15.4505 6.84883C13.1771 6.53154 10.9746 7.79905 10.1062 9.92376C9.23771 12.0485 9.92156 14.4992 11.7663 15.8651C13.501 17.1495 15.851 17.172 17.6046 15.9641L18.0176 16.3239C18.1829 16.4669 18.4321 16.4571 18.5876 16.3034L23.5288 11.3525C23.5414 11.4867 23.5468 11.6421 23.5484 11.8284C23.5421 12.4298 23.4817 12.7223 23.4036 12.8818C23.3522 12.9868 23.3076 13.027 23.1436 13.1017C22.9795 13.1764 22.6975 13.2747 22.4084 13.5188C22.1192 13.763 21.8365 14.1409 21.5799 14.7431C21.3445 15.2957 21.2591 15.7317 21.2675 16.0933C21.2754 16.4549 21.3846 16.7323 21.4597 16.9184C21.5347 17.1045 21.5594 17.1772 21.5521 17.2496C21.5214 17.4195 21.4292 17.5166 21.3485 17.6389C21.0735 17.6204 20.7916 17.6721 20.5291 17.809L17.1695 19.362H15.9993C16.0087 19.2932 16.0123 19.225 16.0123 19.1535C16.0123 18.3488 15.367 17.6888 14.5477 17.6888C12.6513 17.692 12.8792 17.6904 10.9747 17.6888C10.3209 17.6888 9.54215 18.0005 8.81486 18.3095C8.71784 18.2266 8.60821 18.1266 8.48365 18.0004C8.07672 17.5881 7.92278 17.3293 7.8842 17.2063C7.86046 17.1308 7.861 17.062 7.93 16.8939C7.99916 16.7258 8.13503 16.4552 8.16798 16.0777C8.2009 15.7003 8.12954 15.235 7.88338 14.6286C7.63723 14.0221 7.36346 13.64 7.07621 13.3921C6.78897 13.1441 6.50089 13.0432 6.33201 12.9717C6.20968 12.9198 6.14002 12.8938 6.08422 12.7861C6.01727 12.6569 5.95909 12.3953 5.964 11.8252C5.95925 11.255 6.01743 10.9922 6.08422 10.8634C6.12615 10.7824 6.16318 10.7526 6.33201 10.681C6.50089 10.6095 6.78897 10.5087 7.07621 10.2607C7.36346 10.0127 7.63723 9.62821 7.88338 9.02173C8.12955 8.41525 8.20091 7.95247 8.16798 7.57504C8.13506 7.19761 7.99914 6.92373 7.93 6.7556C7.87888 6.63105 7.85033 6.55177 7.8842 6.44401C7.92281 6.32105 8.07672 6.06138 8.48365 5.64911C8.89059 5.23686 9.15819 5.07265 9.27201 5.04067C9.39593 4.99984 9.44121 5.02793 9.59014 5.07747C9.76031 5.14346 10.0343 5.27362 10.4128 5.29991C10.7914 5.32618 11.2577 5.24943 11.862 4.99405C12.4663 4.73872 12.8451 4.45867 13.0895 4.16889C13.3339 3.87911 13.4296 3.59146 13.5 3.42387C13.5705 3.25628 13.6179 3.21235 13.6922 3.17362C13.806 3.10795 14.1003 3.03623 14.681 3.03132ZM25.1881 7.25691L24.9869 9.84362L24.7146 9.57129C24.551 9.40727 24.2853 9.40727 24.1217 9.57129L18.2727 15.4349L13.967 11.6984C13.842 11.5905 13.6652 11.5661 13.5156 11.6362L10.7187 12.9423C10.5473 12.3227 10.521 11.6635 10.6492 11.0163L14.2361 9.38647L18.047 12.6135C18.2128 12.7542 18.4586 12.7445 18.613 12.5914L22.8819 8.32905C23.0464 8.16535 23.0464 7.89902 22.8819 7.73532L22.6071 7.46054L25.1881 7.25691ZM21.2561 18.4731C21.4577 18.4791 21.6478 18.5688 21.7476 18.7209C21.9001 18.9442 21.9357 19.2427 21.7034 19.4749C21.7034 19.4749 20.312 20.9382 18.6743 22.3928C17.8554 23.1201 16.9752 23.8432 16.1865 24.3768C15.3979 24.9104 14.6722 25.224 14.353 25.224C14.205 25.224 13.7071 25.1753 13.0952 25.0973C12.4834 25.0192 11.7324 24.915 10.969 24.8102C9.44206 24.6007 7.91487 24.3866 7.21933 24.3866H6.78671V19.784C7.54915 19.784 8.30553 19.4362 9.03975 19.1224C9.77398 18.8086 10.4861 18.5262 10.9747 18.5262C12.8798 18.5278 12.652 18.5294 14.5477 18.5262C14.9028 18.5262 15.1749 18.813 15.1749 19.1535C15.1749 19.494 14.9028 19.7807 14.5477 19.7807H11.8129C11.2545 19.7807 11.2545 20.619 11.8129 20.619H14.5477C14.9467 20.619 15.3121 20.4588 15.5773 20.197C15.5868 20.1976 15.5915 20.2003 15.6018 20.2003H17.2587C17.3194 20.2008 17.38 20.1893 17.4353 20.1635L20.8971 18.5606C21.0093 18.497 21.1351 18.47 21.2561 18.4731Z" fill="#6942D0"/>
</g>
<defs>
<clipPath id="clip0_42_3098">
<rect width="26.7978" height="26.7978" fill="white" transform="translate(0.101196 0.101135)"/>
</clipPath>
</defs>
</svg>
