<svg width="26" height="24" viewBox="0 0 26 24" fill="none" xmlns="http://www.w3.org/2000/svg">
<g clip-path="url(#clip0_57_16)">
<path fill-rule="evenodd" clip-rule="evenodd" d="M6.33919 23.8826C7.59603 23.8826 8.618 22.9604 8.618 21.8248C8.618 21.4192 8.48682 21.0414 8.26042 20.7212H8.32178C7.32096 19.6175 7.42676 18.7146 8.48682 18.3986H11.9928C12.3885 18.3986 12.7122 18.072 12.7122 17.6729V14.5328C12.9577 12.3896 13.8654 13.0257 14.9339 13.6896C17.5153 15.2927 19.2313 11.4952 17.145 10.1951C15.5073 9.17478 14.7985 10.9295 13.5988 10.748C13.1354 10.6776 12.8138 10.1717 12.7122 9.40318V6.29939C12.7122 5.9002 12.3885 5.5736 11.9928 5.5736H8.92269C7.46908 5.38789 7.19401 4.40167 8.31966 3.16143H8.2583C8.4847 2.84123 8.61589 2.4634 8.61589 2.05781C8.618 0.922174 7.59815 0 6.33919 0C5.08236 0 4.0625 0.922174 4.0625 2.05781C4.0625 2.4634 4.19369 2.84123 4.42008 3.16143H4.40527C5.53092 4.40167 5.25798 5.39002 3.80225 5.5736H0.719401C0.323731 5.5736 0 5.9002 0 6.29939V9.53553C0.230632 10.8676 1.18278 11.0853 2.36768 9.99022V10.0052C2.68506 9.77675 3.05957 9.6444 3.46159 9.6444C4.58724 9.6444 5.5013 10.6733 5.5013 11.9413C5.5013 13.2093 4.58724 14.2382 3.46159 14.2382C3.05957 14.2382 2.68506 14.1058 2.36768 13.8774V13.9393C1.18278 12.8443 0.230632 13.0641 0 14.3962V17.675C0 18.0742 0.323731 18.4008 0.719401 18.4008H4.23812C5.29818 18.7167 5.40609 19.6197 4.40316 20.7233H4.41797C4.19369 21.0435 4.06038 21.4213 4.06038 21.8269C4.0625 22.9626 5.08236 23.8847 6.33919 23.8826ZM19.6608 24H19.6566C18.3997 24 17.3778 23.0778 17.3778 21.9422C17.3778 21.5366 17.509 21.1588 17.7354 20.8386H17.7205C18.7214 19.7349 18.6156 18.832 17.5555 18.5161H14.0368C13.6411 18.5161 13.3174 18.1894 13.3174 17.7903V14.5178C13.4867 14.0226 13.7025 13.8475 13.9564 13.8411C14.0728 13.839 14.1955 13.871 14.3267 13.9265C14.6948 14.0802 15.1265 14.4026 15.5962 14.5861C17.4074 15.2906 18.9626 13.5124 18.8589 11.6851C18.8356 11.2774 18.6727 10.8761 18.4315 10.5047C17.5068 9.07872 16.1379 8.94423 14.8175 9.75754C14.1447 10.1738 13.6094 10.4876 13.3026 9.50778L13.3195 6.41466C13.3216 6.01548 13.6432 5.68887 14.0389 5.68887H17.1196C18.5732 5.50316 18.8483 4.51694 17.7227 3.27671H17.7375C17.5111 2.95651 17.3799 2.57867 17.3799 2.17309C17.3799 1.03745 18.3997 0.115272 19.6587 0.115272H19.6629C20.9198 0.115272 21.9417 1.03745 21.9417 2.17309C21.9417 2.57867 21.8105 2.95651 21.5842 3.27671H21.599C20.4733 4.51694 20.7463 5.50529 22.202 5.68887H25.2827C25.6784 5.68887 26.0021 6.01548 26.0021 6.41466V9.6508C25.7715 10.9828 24.8193 11.2006 23.6344 10.1055V10.1204C23.3171 9.89202 22.9425 9.75967 22.5405 9.75967C21.4149 9.75967 20.5008 10.7886 20.5008 12.0566C20.5008 13.3246 21.4149 14.3556 22.5405 14.3556C22.9425 14.3556 23.3171 14.2232 23.6344 13.9948V14.0567C24.8215 12.9617 25.7715 13.1815 26.0021 14.5136V17.786C26.0021 18.1852 25.6784 18.5118 25.2827 18.5118H21.764C20.7039 18.8277 20.5981 19.7307 21.599 20.8343H21.582C21.8084 21.1545 21.9396 21.5323 21.9396 21.9379C21.9375 23.0778 20.9176 24 19.6608 24Z" fill="#6942D0"/>
</g>
<defs>
<clipPath id="clip0_57_16">
<rect width="26" height="24" fill="white"/>
</clipPath>
</defs>
</svg>
