<svg width="26" height="26" viewBox="0 0 26 26" fill="none" xmlns="http://www.w3.org/2000/svg">
<path d="M20.4303 2.64062H17.2493V1.625C17.2494 1.46616 17.1874 1.31358 17.0766 1.19975C16.9659 1.08593 16.815 1.01986 16.6562 1.01562H9.41684C9.25524 1.01562 9.10025 1.07983 8.98598 1.19411C8.8717 1.30839 8.80747 1.46339 8.80747 1.625V2.64062H5.80528C5.21305 2.6417 4.64532 2.87745 4.22655 3.29624C3.80775 3.71504 3.572 4.28273 3.57092 4.875V22.75C3.572 23.3423 3.80775 23.91 4.22655 24.3288C4.64532 24.7475 5.21305 24.9833 5.80528 24.9844H20.4303C21.0226 24.9833 21.5902 24.7475 22.0091 24.3288C22.4279 23.91 22.6636 23.3423 22.6647 22.75V4.875C22.6636 4.28273 22.4279 3.71504 22.0091 3.29624C21.5902 2.87745 21.0226 2.6417 20.4303 2.64062ZM10.0262 2.23438H16.0306V4.26562H10.0262V2.23438ZM18.0781 21.3281H7.92184C7.76024 21.3281 7.60525 21.2639 7.49098 21.1497C7.3767 21.0354 7.31247 20.8804 7.31247 20.7188C7.31247 20.5571 7.3767 20.4021 7.49098 20.2878C7.60525 20.1736 7.76024 20.1094 7.92184 20.1094H18.0781C18.2397 20.1094 18.3947 20.1736 18.509 20.2878C18.6233 20.4021 18.6875 20.5571 18.6875 20.7188C18.6875 20.8804 18.6233 21.0354 18.509 21.1497C18.3947 21.2639 18.2397 21.3281 18.0781 21.3281ZM18.0781 17.2981H7.92184C7.76024 17.2981 7.60525 17.2339 7.49098 17.1197C7.3767 17.0054 7.31247 16.8504 7.31247 16.6888C7.31247 16.5271 7.3767 16.3721 7.49098 16.2578C7.60525 16.1436 7.76024 16.0794 7.92184 16.0794H18.0781C18.2397 16.0794 18.3947 16.1436 18.509 16.2578C18.6233 16.3721 18.6875 16.5271 18.6875 16.6888C18.6875 16.8504 18.6233 17.0054 18.509 17.1197C18.3947 17.2339 18.2397 17.2981 18.0781 17.2981ZM18.0781 13.2722H7.92184C7.76024 13.2722 7.60525 13.208 7.49098 13.0937C7.3767 12.9794 7.31247 12.8244 7.31247 12.6628C7.31247 12.5012 7.3767 12.3462 7.49098 12.2319C7.60525 12.1176 7.76024 12.0534 7.92184 12.0534H18.0781C18.2397 12.0534 18.3947 12.1176 18.509 12.2319C18.6233 12.3462 18.6875 12.5012 18.6875 12.6628C18.6875 12.8244 18.6233 12.9794 18.509 13.0937C18.3947 13.208 18.2397 13.2722 18.0781 13.2722ZM18.0781 9.24219H7.92184C7.76024 9.24219 7.60525 9.178 7.49098 9.06372C7.3767 8.94944 7.31247 8.79442 7.31247 8.63281C7.31247 8.47121 7.3767 8.31618 7.49098 8.2019C7.60525 8.08763 7.76024 8.02344 7.92184 8.02344H18.0781C18.2397 8.02344 18.3947 8.08763 18.509 8.2019C18.6233 8.31618 18.6875 8.47121 18.6875 8.63281C18.6875 8.79442 18.6233 8.94944 18.509 9.06372C18.3947 9.178 18.2397 9.24219 18.0781 9.24219Z" fill="#6942D0"/>
</svg>
