<svg width="26" height="29" viewBox="0 0 26 29" fill="none" xmlns="http://www.w3.org/2000/svg">
<path d="M9.55529 2.58659C9.67657 2.55119 9.80251 2.53231 9.93312 2.53231C10.1127 2.53231 10.283 2.56771 10.4416 2.63143C10.6048 2.69751 10.7517 2.79427 10.8754 2.91227C10.999 3.03263 11.0992 3.17423 11.1669 3.33472C11.2322 3.48812 11.2695 3.65804 11.2695 3.83268V4.43921H13.716C14.3084 3.57308 15.253 2.57715 15.9014 1.8951C16.1089 1.67562 16.2885 1.48682 16.4098 1.35229V1.34993C16.4121 1.34521 16.4168 1.34049 16.4215 1.33813C16.664 1.03133 16.9252 0.830729 17.1818 0.717448C17.478 0.585286 17.7718 0.568766 18.0284 0.637207C18.131 0.665527 18.229 0.705648 18.3176 0.759928C18.4085 0.814209 18.4925 0.88029 18.5671 0.958171C18.6418 1.03369 18.7071 1.12101 18.763 1.21777C18.8167 1.31217 18.861 1.41602 18.8913 1.52458C18.9636 1.78182 18.9683 2.0721 18.882 2.37419C18.8074 2.63851 18.6628 2.90991 18.4319 3.16951L18.4249 3.17659C18.3922 3.21436 18.3316 3.28044 18.2523 3.37484L18.1403 3.50464H18.1916C18.2406 3.50464 18.2896 3.507 18.3386 3.51172C18.3829 3.51644 18.4295 3.52116 18.4738 3.52824H23.5931C23.7564 3.52824 23.915 3.566 24.0596 3.63208C24.2065 3.70052 24.3418 3.802 24.4514 3.92944C24.561 4.05452 24.652 4.20321 24.7126 4.36841C24.7709 4.52653 24.8036 4.70117 24.8036 4.88053C24.8036 5.01506 24.7849 5.14722 24.7499 5.27466C24.7336 5.33602 24.7126 5.39502 24.6893 5.45166H24.736C24.9015 5.45166 25.0578 5.48942 25.2024 5.5555C25.3493 5.62394 25.4846 5.72778 25.5942 5.85286C25.7038 5.97795 25.7925 6.12663 25.8531 6.29183C25.9114 6.44995 25.9441 6.62459 25.9441 6.80395C25.9441 6.98332 25.9114 7.15796 25.8531 7.31608C25.7925 7.48128 25.7038 7.62996 25.5942 7.75505C25.4823 7.88013 25.3493 7.98161 25.2024 8.05241C25.0578 8.12085 24.9015 8.15625 24.736 8.15625H24.694C24.7196 8.21525 24.7406 8.27661 24.7593 8.33797C24.7966 8.46777 24.8153 8.60229 24.8153 8.73918V8.74154C24.8153 8.9209 24.7826 9.09554 24.7243 9.25366C24.6637 9.41886 24.575 9.56754 24.4654 9.69263C24.3535 9.81771 24.2205 9.92155 24.0736 9.98999C23.929 10.0584 23.7727 10.0938 23.6071 10.0938H23.5022C23.5255 10.1481 23.5442 10.2071 23.5582 10.2638C23.5908 10.3841 23.6071 10.5139 23.6071 10.6437V10.6484C23.6071 10.8278 23.5745 10.9977 23.5162 11.1558C23.4555 11.321 23.3669 11.4697 23.2573 11.5948C23.1454 11.7199 23.0124 11.8214 22.8655 11.8922C22.7209 11.9606 22.5646 11.996 22.399 11.996H22.2078V15.9396C23.0637 16.5815 24.0479 17.6058 24.7243 18.3091C24.9389 18.5333 25.1231 18.7244 25.2607 18.859L25.2654 18.8613C25.27 18.866 25.2724 18.8684 25.277 18.8731C25.5779 19.1351 25.7738 19.4159 25.8858 19.6921C26.014 20.0107 26.0304 20.3245 25.9627 20.6007C25.9347 20.7092 25.8951 20.8154 25.8438 20.9122C25.7901 21.0113 25.7248 21.101 25.6502 21.1812C25.5732 21.2638 25.4869 21.3346 25.3937 21.3913C25.3004 21.4479 25.1977 21.4951 25.0881 21.5305C24.8339 21.6084 24.5424 21.6131 24.2438 21.5211C23.9803 21.4385 23.7098 21.2804 23.4509 21.0278C23.4136 20.9924 23.3436 20.924 23.255 20.839L23.129 20.7187V20.7777C23.129 20.8296 23.1267 20.8815 23.122 20.9358C23.1174 20.983 23.1127 21.0302 23.1057 21.0821V26.4583C23.1057 26.6329 23.0684 26.8028 23.0031 26.9562C22.9355 27.1167 22.8352 27.2583 22.7116 27.3787C22.5879 27.499 22.441 27.5958 22.2778 27.6595C22.1192 27.7232 21.9489 27.7586 21.7693 27.7586C21.6341 27.7586 21.5034 27.7374 21.3798 27.702C21.3192 27.6831 21.2609 27.6619 21.2049 27.6359V27.6949C21.2049 27.8695 21.1676 28.0395 21.1023 28.1929C21.0347 28.3534 20.9344 28.495 20.8108 28.6153C20.6872 28.7357 20.5402 28.8324 20.377 28.8962C20.2184 28.9599 20.0481 28.9953 19.8685 28.9953C19.689 28.9953 19.5187 28.9599 19.3601 28.8962C19.1968 28.8301 19.0499 28.7333 18.9263 28.6153C18.8027 28.495 18.7024 28.3534 18.6348 28.1929C18.5695 28.0395 18.5322 27.8695 18.5322 27.6949V27.643C18.4785 27.6689 18.4202 27.6902 18.3642 27.7091L18.3549 27.7138C18.2266 27.7539 18.0914 27.7728 17.9561 27.7728H17.9538C17.7742 27.7728 17.6039 27.7374 17.4453 27.6737C17.2821 27.6076 17.1351 27.5108 17.0115 27.3928C16.8879 27.2725 16.7876 27.1309 16.72 26.9704C16.6547 26.817 16.6174 26.6471 16.6174 26.4724V26.3521C16.5637 26.3757 16.5078 26.3969 16.4494 26.4134C16.3282 26.4488 16.2022 26.4677 16.0716 26.4677C15.892 26.4677 15.7218 26.4323 15.5632 26.3686C15.3999 26.3025 15.253 26.2057 15.1294 26.0877C15.0058 25.9674 14.9055 25.8258 14.8379 25.6653C14.7726 25.5119 14.7352 25.342 14.7352 25.1673V24.5608H12.2864C11.694 25.4269 10.7494 26.4228 10.101 27.1049C9.89114 27.3244 9.71389 27.5132 9.59261 27.6477L9.57862 27.6642C9.33606 27.9687 9.07718 28.1669 8.82063 28.2826C8.52444 28.4147 8.23057 28.4312 7.97402 28.3628C7.8714 28.3345 7.77345 28.2944 7.68482 28.2401C7.59387 28.1858 7.5099 28.1197 7.43527 28.0418C7.36297 27.9687 7.3 27.8837 7.24636 27.7893L7.24169 27.7799C7.18805 27.6855 7.14607 27.5816 7.11342 27.4731C7.04112 27.2158 7.03646 26.9255 7.12275 26.6235C7.19738 26.3591 7.34198 26.0877 7.57288 25.8281L7.57987 25.821C7.61252 25.7833 7.67316 25.7172 7.75246 25.6228L7.86441 25.493H7.81543C7.76645 25.493 7.71748 25.4906 7.6685 25.4859C7.62419 25.4812 7.57754 25.4765 7.53323 25.4694H2.35328C2.19003 25.4694 2.03143 25.4316 1.88683 25.3656C1.7399 25.2971 1.60463 25.1933 1.49501 25.0682C1.3854 24.9431 1.29444 24.7944 1.23613 24.6292C1.17783 24.4711 1.14518 24.2965 1.14518 24.1171C1.14518 23.9826 1.16383 23.8504 1.19882 23.723C1.21514 23.6616 1.23613 23.6026 1.25946 23.546H1.21281C1.04722 23.546 0.890959 23.5082 0.746359 23.4421C0.599427 23.3737 0.464156 23.2699 0.35454 23.1448C0.244924 23.0197 0.156298 22.871 0.0956595 22.7058C0.0350208 22.55 0.00236924 22.3754 0.00236924 22.196C0.00236924 22.0167 0.0350208 21.842 0.0933273 21.6839C0.153966 21.5187 0.242592 21.37 0.352208 21.245C0.464156 21.1199 0.597095 21.0184 0.744027 20.9476C0.888627 20.8792 1.04489 20.8438 1.21048 20.8438H1.25246C1.2268 20.7847 1.20581 20.7234 1.18716 20.662C1.14984 20.5322 1.13118 20.3977 1.13118 20.2608V20.2585C1.13118 20.0791 1.16383 19.9045 1.22214 19.7463C1.28278 19.5811 1.3714 19.4325 1.48102 19.3074C1.59297 19.1823 1.72591 19.0785 1.87284 19.01C2.01744 18.9416 2.1737 18.9062 2.33929 18.9062H2.44424C2.42325 18.8519 2.40459 18.7976 2.38827 18.741L2.38594 18.7362C2.35328 18.6159 2.33696 18.4861 2.33696 18.3563V18.3516C2.33696 18.1722 2.36961 18.0023 2.42792 17.8442C2.48856 17.679 2.57718 17.5303 2.6868 17.4052C2.79875 17.2801 2.93168 17.1763 3.07862 17.1078C3.22322 17.0394 3.37948 17.004 3.54507 17.004H3.79462V13.0604C2.93868 12.4185 1.95447 11.3942 1.27811 10.6909C1.06121 10.4644 0.876966 10.2732 0.739362 10.1387L0.727701 10.1269C0.42684 9.86491 0.228598 9.58407 0.11665 9.30794C-0.0116243 8.98934 -0.0279501 8.67546 0.0396853 8.39933C0.0676724 8.29077 0.107321 8.18457 0.15863 8.08781C0.212272 7.98869 0.277576 7.89901 0.352208 7.81877C0.429172 7.73617 0.515466 7.66536 0.608756 7.60872C0.702046 7.55208 0.804666 7.50488 0.914282 7.46948C1.1685 7.3916 1.46003 7.38688 1.75856 7.47892C2.0221 7.56152 2.29265 7.71964 2.55153 7.97217C2.58884 8.00757 2.65881 8.07601 2.74744 8.16097L2.87338 8.28133V8.22233C2.87338 8.17041 2.87571 8.11849 2.88037 8.06421C2.88504 8.01701 2.8897 7.96981 2.8967 7.91789V2.53939C2.8967 2.36475 2.93402 2.19482 2.99932 2.04142C3.06695 1.88094 3.16724 1.73934 3.29085 1.61898C3.41446 1.49862 3.56139 1.40186 3.72465 1.33813C3.88324 1.27441 4.0535 1.23901 4.23308 1.23901C4.36835 1.23901 4.49896 1.26025 4.62257 1.29565C4.68321 1.31453 4.74152 1.33577 4.79749 1.36173V1.30037C4.79749 1.12573 4.83481 0.955811 4.90011 0.802409C4.96774 0.641927 5.06803 0.500326 5.19164 0.379964C5.31525 0.259603 5.46218 0.162842 5.62544 0.0991211C5.78403 0.0354004 5.95662 0 6.1362 0C6.31579 0 6.48604 0.0354004 6.64464 0.0991211C6.8079 0.165202 6.95483 0.261963 7.07844 0.379964C7.20205 0.500326 7.30233 0.641927 7.36997 0.802409C7.43527 0.955811 7.47259 1.12573 7.47259 1.30037V1.35229C7.5309 1.32633 7.5892 1.30273 7.64984 1.28385C7.77811 1.24373 7.91338 1.22249 8.04866 1.22249H8.05099C8.23057 1.22249 8.40083 1.25789 8.55942 1.32161C8.72268 1.3877 8.86961 1.48446 8.99322 1.60246C9.11683 1.72282 9.21712 1.86442 9.28475 2.0249C9.35006 2.1783 9.38737 2.34823 9.38737 2.52287V2.64323C9.44101 2.62435 9.49699 2.60311 9.55529 2.58659ZM10.2783 12.8126V17.0323C10.6048 17.0819 10.915 17.1857 11.2019 17.3368C11.5191 17.5043 11.8083 17.7332 12.0578 18.0046H14.7772C14.8332 17.6837 14.9335 17.3745 15.0757 17.0889C15.2413 16.7538 15.4606 16.4517 15.7241 16.1898V11.9724C15.3976 11.9229 15.0874 11.819 14.8005 11.668C14.481 11.5004 14.1942 11.2715 13.9446 11.0001H11.2229C11.1669 11.321 11.0666 11.6302 10.9243 11.9158C10.7611 12.2462 10.5395 12.5506 10.2783 12.8126Z" fill="#F5F5F5"/>
<path d="M18.1892 12.0031H16.6243V15.9066C16.6243 16.5155 16.6056 16.5273 16.426 16.6429C16.3514 16.6901 16.2348 16.7656 16.0529 17.0064C15.8826 17.2282 15.7497 17.4784 15.6564 17.7474C15.5678 18.007 15.5211 18.2855 15.5211 18.5734V20.7895C15.5211 20.8084 15.5211 20.8249 15.5234 20.8438V25.1721C15.5234 25.2405 15.5374 25.3042 15.5608 25.3632L15.5631 25.3679C15.5911 25.4317 15.6307 25.4907 15.682 25.5402C15.7334 25.5898 15.794 25.6299 15.8593 25.6559C15.9223 25.6818 15.9946 25.696 16.0692 25.696C16.1438 25.696 16.2138 25.6818 16.2791 25.6559C16.3467 25.6299 16.4074 25.5898 16.4564 25.5402C16.5077 25.4907 16.5473 25.434 16.5753 25.3703C16.601 25.3089 16.6149 25.2429 16.6149 25.1721V22.8592V22.8474C16.6149 22.7814 16.6686 22.7271 16.7339 22.7271H17.2866C17.3519 22.7271 17.4056 22.7814 17.4056 22.8474V26.4772C17.4056 26.548 17.4196 26.614 17.4452 26.6754C17.4709 26.7368 17.5105 26.7934 17.5572 26.8406L17.5642 26.8453C17.6132 26.8925 17.6715 26.9326 17.7368 26.9586L17.7414 26.961C17.8044 26.9869 17.8767 27.0011 17.9513 27.0011C18.026 27.0011 18.0959 26.9869 18.1612 26.961C18.2289 26.935 18.2872 26.8949 18.3385 26.8453C18.3898 26.7958 18.4294 26.7391 18.4574 26.6754C18.4831 26.614 18.4971 26.548 18.4971 26.4772V22.8474C18.4971 22.7814 18.5507 22.7271 18.616 22.7271H19.2014C19.2667 22.7271 19.3204 22.7814 19.3204 22.8474V27.7044C19.3204 27.7752 19.3344 27.8413 19.36 27.9026C19.388 27.9663 19.4276 28.0253 19.479 28.0725C19.5303 28.1221 19.5909 28.1622 19.6562 28.1882C19.7192 28.2141 19.7915 28.2283 19.8661 28.2283C19.9384 28.2283 20.0084 28.2141 20.069 28.1905L20.0737 28.1882C20.1413 28.1622 20.202 28.1221 20.2509 28.0725C20.3022 28.023 20.3419 27.9663 20.3699 27.9026C20.3955 27.8413 20.4095 27.7752 20.4095 27.7044V22.8474C20.4095 22.7814 20.4632 22.7271 20.5285 22.7271H21.0999C21.1652 22.7271 21.2188 22.7814 21.2188 22.8474V26.4654C21.2188 26.5362 21.2328 26.6022 21.2585 26.6636C21.2865 26.7273 21.3261 26.7863 21.3774 26.8359C21.4287 26.8854 21.487 26.9256 21.5547 26.9515C21.6176 26.9775 21.6899 26.9916 21.7646 26.9916C21.8392 26.9916 21.9092 26.9775 21.9745 26.9515C22.0421 26.9256 22.1004 26.8854 22.1517 26.8359C22.203 26.7863 22.2427 26.7297 22.2707 26.6636C22.2963 26.6022 22.3103 26.5362 22.3103 26.4654C22.3103 25.5874 22.315 24.6033 22.3173 23.6215C22.322 22.7554 22.3243 21.8916 22.3243 20.7871L22.3896 19.7204C22.3919 19.6779 22.4176 19.6378 22.4572 19.6189L22.6672 19.5198C22.6858 19.5104 22.7045 19.5033 22.7278 19.5033C22.7651 19.5033 22.8024 19.508 22.8397 19.5198C22.8771 19.5316 22.912 19.5458 22.9424 19.567C23.0123 19.6071 23.101 19.6708 23.1942 19.7464C23.2922 19.8266 23.3925 19.9139 23.4904 20.0012C23.698 20.19 23.9149 20.4001 23.9965 20.4803C24.1505 20.629 24.3021 20.7234 24.442 20.7753C24.5913 20.8296 24.7289 20.832 24.8431 20.7966C24.8828 20.7848 24.9224 20.7659 24.9598 20.7423C24.9971 20.7187 25.0297 20.6904 25.06 20.6597C25.0904 20.629 25.116 20.5912 25.137 20.5535C25.158 20.5134 25.1743 20.4709 25.186 20.426C25.221 20.2868 25.207 20.124 25.1277 19.9493C25.0554 19.7888 24.9318 19.6236 24.7429 19.4584L24.7335 19.4514L24.7125 19.4325L24.6985 19.4183C24.6216 19.3428 24.5143 19.2342 24.3814 19.0997C23.7563 18.4672 22.5855 17.2849 21.6853 16.617C21.6759 16.6099 21.6666 16.6028 21.6573 16.5934C21.5966 16.5202 21.5407 16.4423 21.4917 16.3597C21.4427 16.2771 21.4031 16.1898 21.3704 16.1001C21.3448 16.0222 21.3238 15.9444 21.3121 15.8618C21.3004 15.7839 21.2958 15.7013 21.2981 15.614V11.9984H18.4738H18.4714C18.4528 11.9984 18.4341 11.996 18.4154 11.9937C18.4061 11.9913 18.3968 11.9913 18.3898 11.989C18.3618 11.9913 18.3338 11.9937 18.3035 11.996H18.3012C18.2639 12.0008 18.2265 12.0031 18.1892 12.0031Z" fill="#6942D0"/>
<path d="M11.2718 8.21997V10.0868H13.6834C14.2524 10.0868 14.2618 10.1056 14.3714 10.2897C14.4157 10.3652 14.4833 10.4809 14.7049 10.6673C14.9101 10.8396 15.1387 10.9741 15.3859 11.0662C15.6238 11.1558 15.8804 11.203 16.1439 11.203H18.1916C18.208 11.203 18.2243 11.203 18.2429 11.2007H22.3944C22.4573 11.2007 22.5156 11.1865 22.5716 11.1606C22.6299 11.1322 22.6812 11.0921 22.7279 11.0426C22.7722 10.9906 22.8095 10.9293 22.8351 10.8632C22.8585 10.7971 22.8725 10.7263 22.8725 10.6484C22.8725 10.5729 22.8585 10.4998 22.8351 10.4337C22.8095 10.3652 22.7722 10.3039 22.7279 10.252C22.6836 10.2024 22.6322 10.1623 22.5739 10.1339C22.5203 10.108 22.4597 10.0938 22.3967 10.0938H20.1064H20.0947C20.0294 10.0938 19.9758 10.0395 19.9758 9.97347V9.41414C19.9758 9.34806 20.0294 9.29378 20.0947 9.29378H23.6048C23.6678 9.29378 23.7261 9.27962 23.782 9.25366C23.838 9.2277 23.8893 9.18994 23.9313 9.14274L23.936 9.13566C23.9803 9.08374 24.0176 9.02238 24.0433 8.9563C24.0666 8.89022 24.0806 8.81942 24.0806 8.74154C24.0806 8.66601 24.0666 8.59285 24.0433 8.52677C24.0176 8.45833 23.9803 8.39697 23.936 8.34505C23.8917 8.29549 23.8404 8.25537 23.7797 8.22705C23.7261 8.20109 23.6654 8.18693 23.6025 8.18693H20.0924C20.0271 8.18693 19.9735 8.13265 19.9735 8.06657V7.4742C19.9735 7.40812 20.0271 7.35384 20.0924 7.35384H24.7359C24.7989 7.35384 24.8572 7.33968 24.9132 7.31372C24.9715 7.2854 25.0251 7.24528 25.0695 7.19572C25.1138 7.1438 25.1511 7.08244 25.1767 7.01636C25.2001 6.95027 25.2141 6.87947 25.2141 6.80159C25.2141 6.72607 25.2001 6.65291 25.1767 6.58683C25.1534 6.52075 25.1184 6.46175 25.0741 6.41219L25.0695 6.40747C25.0251 6.35791 24.9715 6.31779 24.9155 6.28947C24.8619 6.26351 24.8012 6.24935 24.7383 6.24935H20.0971C20.0318 6.24935 19.9781 6.19507 19.9781 6.12899V5.55078C19.9781 5.4847 20.0318 5.43042 20.0971 5.43042H23.5955C23.6584 5.43042 23.7167 5.41626 23.7727 5.3903C23.831 5.36198 23.8847 5.32186 23.929 5.2723C23.9733 5.22038 24.0106 5.15901 24.0363 5.09293C24.0596 5.02685 24.0736 4.95605 24.0736 4.87817C24.0736 4.80265 24.0596 4.72949 24.0363 4.66341C24.0106 4.59497 23.9756 4.53361 23.929 4.48169C23.8847 4.43213 23.831 4.39201 23.7727 4.36369C23.7191 4.33773 23.6584 4.32357 23.5955 4.32357C22.7885 4.32357 21.8393 4.31885 20.8924 4.31649C20.0574 4.31413 19.2225 4.30941 18.1986 4.30941L17.2074 4.24804C17.1654 4.24568 17.1258 4.21972 17.1071 4.17724L17.0138 3.96484C17.0045 3.94832 16.9998 3.92944 16.9998 3.9082C16.9998 3.87044 17.0045 3.83268 17.0138 3.79728C17.0232 3.76424 17.0372 3.7312 17.0558 3.69816C17.0931 3.625 17.1538 3.53532 17.2237 3.43856C17.2914 3.34887 17.373 3.24503 17.4616 3.13883C17.6319 2.93351 17.8161 2.72583 17.8954 2.63615L17.9048 2.62435C18.0424 2.46859 18.131 2.31518 18.1753 2.17358C18.2243 2.02018 18.2266 1.88094 18.194 1.76294C18.1823 1.72046 18.166 1.68034 18.145 1.64494C18.124 1.60718 18.0983 1.57414 18.068 1.54345C18.04 1.51277 18.0074 1.48917 17.9701 1.46793C17.9351 1.44433 17.8954 1.42781 17.8558 1.41601C17.7322 1.38297 17.5829 1.39713 17.4266 1.47265C17.282 1.54345 17.1281 1.66854 16.9789 1.85734L16.9719 1.86914L16.9532 1.89038L16.9299 1.91162C16.8506 1.99894 16.755 2.10278 16.6383 2.23022C16.0553 2.86271 14.9638 4.04744 14.3481 4.95841C14.3411 4.96785 14.3341 4.97729 14.3247 4.98673C14.2571 5.04809 14.1848 5.10473 14.1078 5.15666C14.0309 5.20622 13.9516 5.2487 13.8653 5.27938C13.793 5.30534 13.7207 5.32658 13.6414 5.33838C13.5668 5.35018 13.4898 5.3549 13.4105 5.35254H11.2648V7.90609V7.90845C11.2648 7.92733 11.2625 7.94621 11.2602 7.96509C11.2578 7.97453 11.2555 7.98633 11.2555 7.99577C11.2578 8.02645 11.2625 8.05949 11.2625 8.09489C11.2695 8.14209 11.2718 8.18221 11.2718 8.21997Z" fill="#6942D0"/>
<path d="M14.7305 20.7871V18.9203H12.3189C11.7499 18.9203 11.7405 18.9014 11.6309 18.7173C11.5866 18.6418 11.519 18.5262 11.2974 18.3397C11.0922 18.1675 10.8636 18.0329 10.6164 17.9409C10.3785 17.8512 10.122 17.804 9.85841 17.804H7.81302C7.79669 17.804 7.78037 17.804 7.76171 17.8064H3.54965C3.48668 17.8064 3.42838 17.8205 3.3724 17.8465C3.3141 17.8748 3.26279 17.9149 3.21847 17.9645C3.17416 18.0164 3.13684 18.0778 3.11119 18.1439C3.08787 18.2099 3.07387 18.2807 3.07387 18.3586C3.07387 18.4341 3.08787 18.5073 3.11119 18.5734C3.13684 18.6418 3.17416 18.7032 3.21847 18.7551C3.26279 18.8047 3.3141 18.8448 3.3724 18.8731C3.42604 18.8991 3.48668 18.9132 3.54965 18.9132H5.89824H5.9099C5.9752 18.9132 6.02884 18.9675 6.02884 19.0336V19.5929C6.02884 19.659 5.9752 19.7133 5.9099 19.7133H2.34154C2.27857 19.7133 2.22027 19.7274 2.16429 19.7534C2.10599 19.7817 2.05234 19.8218 2.00803 19.8714C1.96372 19.9233 1.9264 19.9847 1.90075 20.0508C1.87742 20.1168 1.86343 20.1876 1.86343 20.2655C1.86343 20.341 1.87742 20.4142 1.90075 20.4803C1.9264 20.5487 1.96372 20.6101 2.00803 20.662C2.05234 20.7116 2.10365 20.7517 2.16429 20.78C2.21793 20.806 2.27857 20.8201 2.34154 20.8201H5.90756C5.97287 20.8201 6.02651 20.8744 6.02651 20.9405V21.5329C6.02651 21.5989 5.97287 21.6532 5.90756 21.6532H1.2104C1.14743 21.6532 1.08912 21.6674 1.03315 21.6933C0.974842 21.7217 0.9212 21.7618 0.879219 21.8113C0.834906 21.8633 0.79759 21.9246 0.771935 21.9931C0.748613 22.0591 0.734619 22.1299 0.734619 22.2078C0.734619 22.2857 0.748613 22.3565 0.771935 22.4226C0.795258 22.4887 0.830242 22.5477 0.874555 22.5972L0.879219 22.6019C0.923532 22.6515 0.977174 22.6916 1.03548 22.7199C1.08912 22.7459 1.14976 22.7601 1.21273 22.7601H5.9099C5.9752 22.7601 6.02884 22.8144 6.02884 22.8804V23.4586C6.02884 23.5247 5.9752 23.579 5.9099 23.579H2.35321C2.29023 23.579 2.23193 23.5932 2.17595 23.6191C2.11998 23.6451 2.06867 23.6828 2.02669 23.73L2.02202 23.7371C1.97771 23.789 1.9404 23.8504 1.91474 23.9165C1.89142 23.9826 1.87742 24.0534 1.87742 24.1312C1.87742 24.2068 1.89142 24.2799 1.91474 24.346C1.9404 24.4144 1.97538 24.4758 2.02202 24.5277C2.06401 24.5773 2.11532 24.6151 2.17129 24.6434L2.17595 24.6457C2.2296 24.6717 2.29023 24.6859 2.35321 24.6859C3.16017 24.6859 4.12339 24.6906 5.08661 24.6929C5.93555 24.6977 6.78449 24.7 7.81069 24.7L8.7949 24.7661C8.83688 24.7685 8.87653 24.7944 8.89518 24.8369L8.98848 25.0493C8.9978 25.0658 9.00247 25.0847 9.00247 25.1059C9.00247 25.1437 8.9978 25.1815 8.98848 25.2169C8.97915 25.2499 8.96515 25.2829 8.9465 25.316C8.90918 25.3891 8.84854 25.4788 8.77857 25.5756C8.71094 25.6653 8.62931 25.7691 8.54068 25.8753C8.36809 26.083 8.18385 26.293 8.10688 26.3804L8.09989 26.3898C7.96228 26.5456 7.87366 26.699 7.82934 26.8406C7.78037 26.994 7.77804 27.1332 7.81069 27.2512C7.82235 27.2937 7.83867 27.3338 7.85966 27.3692C7.88065 27.407 7.90631 27.44 7.93663 27.4707C7.96461 27.5014 7.99727 27.525 8.03458 27.5462C8.06957 27.5674 8.10921 27.584 8.14886 27.5934C8.27247 27.6264 8.42174 27.6123 8.578 27.5368C8.7226 27.466 8.87653 27.3409 9.02579 27.1521L9.03279 27.1403L9.05145 27.119L9.06777 27.1002C9.14707 27.0128 9.24269 26.909 9.3593 26.7816C9.94237 26.1491 11.0339 24.9643 11.6496 24.0534C11.6566 24.0439 11.6636 24.0345 11.6729 24.025C11.7405 23.9637 11.8128 23.9047 11.8898 23.8551C11.9668 23.8056 12.0461 23.7631 12.1324 23.7324C12.2047 23.7064 12.277 23.6852 12.3563 23.6734C12.4309 23.6616 12.5079 23.6569 12.5871 23.6592H14.7328V21.1057V21.1033C14.7328 21.0845 14.7352 21.0656 14.7375 21.0467C14.7398 21.0373 14.7422 21.0255 14.7422 21.016C14.7398 20.9853 14.7352 20.9523 14.7352 20.9169C14.7305 20.865 14.7305 20.8248 14.7305 20.7871Z" fill="#6942D0"/>
<path d="M4.6995 13.3979V17.004H7.52386H7.52619C7.54485 17.004 7.56351 17.0063 7.58216 17.0087C7.59149 17.0111 7.60082 17.0111 7.60782 17.0134C7.63581 17.0111 7.66613 17.0087 7.69645 17.0063C7.73609 17.004 7.77574 17.0016 7.81073 17.0016H9.37567V13.1029C9.37567 12.494 9.39433 12.4822 9.57391 12.3665C9.64854 12.3193 9.76516 12.2438 9.94707 12.0031C10.1173 11.7812 10.2503 11.5311 10.3436 11.262C10.4322 11.0024 10.4788 10.724 10.4788 10.436V8.21997C10.4788 8.20109 10.4788 8.18457 10.4765 8.16569V3.83504C10.4765 3.7666 10.4625 3.70052 10.4392 3.64152L10.4368 3.6368C10.4089 3.57308 10.3692 3.51408 10.3179 3.46452C10.2689 3.41732 10.2106 3.3772 10.1453 3.35124L10.1406 3.34888C10.0777 3.32292 10.0054 3.30876 9.93075 3.30876C9.85612 3.30876 9.78615 3.32292 9.72084 3.34888C9.65321 3.37484 9.59257 3.41496 9.54359 3.46452C9.49228 3.51408 9.45263 3.57072 9.42465 3.63444C9.39899 3.6958 9.385 3.76188 9.385 3.83268V6.14551V6.15731C9.385 6.22339 9.33136 6.27767 9.26605 6.27767H8.71331C8.64801 6.27767 8.59436 6.22339 8.59436 6.15731V2.52759C8.59436 2.45679 8.58037 2.39071 8.55472 2.32935C8.52673 2.26562 8.48708 2.20662 8.43577 2.15942C8.38446 2.10986 8.32615 2.06974 8.25852 2.04378C8.19555 2.01782 8.12325 2.00366 8.04862 2.00366C7.97398 2.00366 7.90402 2.01782 7.83871 2.04378C7.77108 2.06974 7.71044 2.10986 7.66146 2.15942C7.61015 2.20898 7.5705 2.26562 7.54252 2.32935C7.51686 2.39071 7.50287 2.45679 7.50287 2.52759V6.15967C7.50287 6.22575 7.44923 6.28003 7.38392 6.28003H6.79853C6.73322 6.28003 6.67958 6.22575 6.67958 6.15967V1.30273C6.67958 1.23429 6.66559 1.16821 6.64227 1.10921L6.63993 1.10449C6.61195 1.04077 6.5723 0.981771 6.52099 0.93457C6.46968 0.88501 6.40904 0.844889 6.34374 0.818929C6.28077 0.792969 6.20847 0.778809 6.13383 0.778809C6.06153 0.778809 5.99157 0.792969 5.93093 0.816569H5.92626C5.85863 0.842529 5.79799 0.88265 5.74901 0.93221C5.6977 0.981771 5.65805 1.03841 5.63007 1.10213C5.60441 1.16349 5.59042 1.22957 5.59042 1.30037V6.15967C5.59042 6.22575 5.53678 6.28003 5.47147 6.28003H4.90007C4.83477 6.28003 4.78112 6.22575 4.78112 6.15967V2.53939C4.78112 2.46859 4.76713 2.40251 4.74148 2.34115C4.71349 2.27743 4.67151 2.21842 4.62253 2.17122C4.57122 2.12166 4.51291 2.08154 4.44528 2.05558C4.38231 2.02962 4.31001 2.01546 4.23538 2.01546C4.16074 2.01546 4.09078 2.02962 4.02547 2.05558C3.96017 2.08154 3.90186 2.1193 3.85289 2.1665L3.84822 2.17122C3.79691 2.22078 3.75726 2.27743 3.72928 2.34351C3.70362 2.40487 3.68963 2.47095 3.68963 2.54175C3.68963 3.41968 3.68496 4.40381 3.68263 5.38558C3.67797 6.25171 3.67563 7.11548 3.67563 8.21997L3.61033 9.2867C3.608 9.32918 3.58234 9.3693 3.5427 9.38818L3.33279 9.4873C3.31413 9.49675 3.29548 9.50383 3.27215 9.50383C3.23484 9.50383 3.19752 9.4991 3.16021 9.4873C3.12289 9.4755 3.08791 9.46134 3.05759 9.4401C2.98762 9.39998 2.89899 9.33626 2.8057 9.26074C2.70775 9.1805 2.60746 9.09318 2.50951 9.00586C2.30194 8.81706 2.08504 8.60702 2.00341 8.52677C1.84948 8.37809 1.69788 8.28369 1.55795 8.23177C1.40868 8.17985 1.27108 8.17513 1.1568 8.21053C1.11715 8.22233 1.0775 8.24121 1.04018 8.26481C1.00287 8.28841 0.970217 8.31437 0.939897 8.34741C0.909578 8.37809 0.883923 8.41585 0.862933 8.45361C0.841943 8.49609 0.825617 8.53857 0.813956 8.58341C0.778972 8.72266 0.792965 8.8855 0.872262 9.06014C0.944562 9.22062 1.06817 9.38582 1.25708 9.55103L1.26641 9.55811L1.2874 9.57699L1.3014 9.59115C1.37836 9.66667 1.48565 9.77523 1.62092 9.91211C2.24596 10.5446 3.41675 11.727 4.31701 12.3925C4.32633 12.3996 4.33566 12.4067 4.34499 12.4161C4.40796 12.4893 4.46161 12.5671 4.51058 12.6497C4.55956 12.7323 4.59921 12.8197 4.63186 12.9093C4.65752 12.9872 4.67851 13.0651 4.69017 13.1477C4.70183 13.2256 4.70649 13.3082 4.70416 13.3955L4.6995 13.3979Z" fill="#6942D0"/>
</svg>
