<svg width="20" height="18" viewBox="0 0 20 18" fill="none" xmlns="http://www.w3.org/2000/svg">
<g clip-path="url(#clip0_62_25)">
<path fill-rule="evenodd" clip-rule="evenodd" d="M12.0014 16.2567V11.1765H8.00137V16.2567C8.00137 16.8156 7.55137 17.2728 7.00137 17.2728H4.00137C3.45137 17.2728 3.00137 16.8156 3.00137 16.2567V9.14444H1.30137C0.841368 9.14444 0.621367 8.56529 0.971367 8.26048L9.33137 0.609677C9.71137 0.264222 10.2914 0.264222 10.6714 0.609677L19.0314 8.26048C19.3714 8.56529 19.1614 9.14444 18.7014 9.14444H17.0014V16.2567C17.0014 16.8156 16.5514 17.2728 16.0014 17.2728H13.0014C12.4514 17.2728 12.0014 16.8156 12.0014 16.2567Z" fill="#FF960C"/>
</g>
<defs>
<clipPath id="clip0_62_25">
<rect width="20" height="17.2727" fill="white" transform="matrix(-1 0 0 1 20 0)"/>
</clipPath>
</defs>
</svg>
