<svg width="46" height="45" viewBox="0 0 46 45" fill="none" xmlns="http://www.w3.org/2000/svg">
<circle cx="23" cy="22.1614" r="21.6614" stroke="#6942D0"/>
<path d="M30.3462 25.7692C29.8424 26.9636 29.0739 28.028 28.0987 28.882C27.1234 29.736 25.967 30.3574 24.7166 30.6992C25.5208 29.1654 26.0245 27.4921 26.2008 25.7692H30.3462Z" fill="#6942D0"/>
<path d="M24.8931 25.7692C24.4223 29.0319 23.3173 31 22.5 31C21.6827 31 20.5777 29.0319 20.1069 25.7692H24.8931Z" fill="#6942D0"/>
<path d="M20.2834 30.6992C19.033 30.3574 17.8765 29.736 16.9013 28.882C15.9261 28.028 15.1576 26.9636 14.6538 25.7692H18.7992C18.9754 27.4921 19.4792 29.1654 20.2834 30.6992Z" fill="#6942D0"/>
<path d="M18.5769 22.5C18.5769 23.1538 18.6031 23.8142 18.6554 24.4615H14.2354C13.9215 23.1727 13.9215 21.8273 14.2354 20.5385H18.6554C18.6031 21.1858 18.5769 21.8461 18.5769 22.5Z" fill="#6942D0"/>
<path d="M25.1153 22.5C25.1153 23.1865 25.0891 23.8404 25.0368 24.4615H19.963C19.9107 23.8404 19.8845 23.1865 19.8845 22.5C19.8845 21.8135 19.9107 21.1596 19.963 20.5385H25.0368C25.0891 21.1596 25.1153 21.8135 25.1153 22.5Z" fill="#6942D0"/>
<path d="M31.0001 22.5C30.9988 23.1608 30.9198 23.8192 30.7647 24.4615H26.3447C26.397 23.8142 26.4232 23.1538 26.4232 22.5C26.4232 21.8461 26.397 21.1858 26.3447 20.5385H30.7647C30.9198 21.1808 30.9988 21.8392 31.0001 22.5Z" fill="#6942D0"/>
<path d="M30.3462 19.2308H26.2008C26.0245 17.5079 25.5208 15.8346 24.7166 14.3008C25.967 14.6426 27.1234 15.264 28.0987 16.118C29.0739 16.972 29.8424 18.0364 30.3462 19.2308Z" fill="#6942D0"/>
<path d="M24.8931 19.2308H20.1069C20.5777 15.9681 21.6827 14 22.5 14C23.3173 14 24.4223 15.9681 24.8931 19.2308Z" fill="#6942D0"/>
<path d="M20.2834 14.3008C19.4792 15.8346 18.9754 17.5079 18.7992 19.2308H14.6538C15.1576 18.0364 15.9261 16.972 16.9013 16.118C17.8765 15.264 19.033 14.6426 20.2834 14.3008Z" fill="#6942D0"/>
</svg>
