<svg width="20" height="20" viewBox="0 0 20 20" fill="none" xmlns="http://www.w3.org/2000/svg">
<path d="M8.20697 12.9581C9.4067 12.8615 10.6119 12.8615 11.8117 12.9581C12.465 12.9962 13.1152 13.078 13.7582 13.2028C15.1496 13.4845 16.058 13.9442 16.4473 14.6856C16.7397 15.2642 16.7397 15.9531 16.4473 16.5317C16.058 17.2731 15.1857 17.7624 13.7438 18.0145C13.1013 18.144 12.4509 18.2283 11.7972 18.2666C11.1917 18.3333 10.5861 18.3333 9.97327 18.3333H8.87023C8.63953 18.3036 8.41604 18.2888 8.19976 18.2888C7.54607 18.2552 6.89556 18.1734 6.25323 18.0441C4.86182 17.7772 3.95344 17.3027 3.56413 16.5613C3.41384 16.2741 3.33461 15.9533 3.33334 15.6272C3.3303 15.2991 3.40713 14.9753 3.55692 14.6856C3.93902 13.9442 4.8474 13.4623 6.25323 13.2028C6.89839 13.0762 7.55112 12.9944 8.20697 12.9581ZM10.0021 1.66663C12.419 1.66663 14.3782 3.68148 14.3782 6.16692C14.3782 8.65237 12.419 10.6672 10.0021 10.6672C7.58526 10.6672 5.62601 8.65237 5.62601 6.16692C5.62601 3.68148 7.58526 1.66663 10.0021 1.66663Z" fill="white"/>
</svg>
