<svg width="20" height="21" viewBox="0 0 20 21" fill="none" xmlns="http://www.w3.org/2000/svg">
<g clip-path="url(#clip0_115_3970)">
<path d="M9.99996 19.25C5.39746 19.25 1.66663 15.3326 1.66663 10.5C1.66663 5.66738 5.39746 1.75 9.99996 1.75C11.2938 1.74898 12.5701 2.0648 13.7274 2.67238C14.8847 3.27995 15.8911 4.16253 16.6666 5.25H14.4083C13.446 4.35904 12.2593 3.77857 10.9906 3.57823C9.72184 3.37789 8.42501 3.5662 7.2557 4.12056C6.08638 4.67493 5.09425 5.57179 4.39835 6.70354C3.70245 7.83529 3.33235 9.15384 3.33246 10.501C3.33256 11.8481 3.70287 13.1666 4.39895 14.2982C5.09503 15.4298 6.08731 16.3265 7.25671 16.8807C8.42611 17.4348 9.72297 17.6229 10.9917 17.4224C12.2603 17.2218 13.447 16.6411 14.4091 15.75H16.6675C15.8918 16.8376 14.8853 17.7202 13.7279 18.3278C12.5704 18.9354 11.294 19.2512 9.99996 19.25ZM15.8333 14V11.375H9.16663V9.625H15.8333V7L20 10.5L15.8333 14Z" fill="white"/>
</g>
<defs>
<clipPath id="clip0_115_3970">
<rect width="20" height="21" fill="white"/>
</clipPath>
</defs>
</svg>
