<svg width="46" height="45" viewBox="0 0 46 45" fill="none" xmlns="http://www.w3.org/2000/svg">
<circle cx="23" cy="22.1614" r="21.6614" stroke="#6942D0"/>
<path d="M22.9998 22.8904C26.0865 22.8904 28.5888 20.3881 28.5888 17.3014C28.5888 14.2147 26.0865 11.7125 22.9998 11.7125C19.9131 11.7125 17.4109 14.2147 17.4109 17.3014C17.4109 20.3881 19.9131 22.8904 22.9998 22.8904Z" fill="#6942D0"/>
<path fill-rule="evenodd" clip-rule="evenodd" d="M31.9909 30.9093C31.9909 31.8482 31.2298 32.6103 30.2899 32.6103H15.71C14.7701 32.6103 14.009 31.8482 14.009 30.9093C14.009 26.7492 17.3818 23.3764 21.542 23.3764H24.4579C28.618 23.3764 31.9909 26.7492 31.9909 30.9093ZM31.2823 31.6179C31.2696 31.6227 31.2619 31.6286 31.2619 31.6383L31.2823 31.6179Z" fill="#6942D0"/>
</svg>
