<svg width="46" height="45" viewBox="0 0 46 45" fill="none" xmlns="http://www.w3.org/2000/svg">
<circle cx="23" cy="22.1614" r="21.6614" stroke="#6942D0"/>
<path fill-rule="evenodd" clip-rule="evenodd" d="M22.0952 26.4468V28.5774C22.0952 28.8001 22.283 28.9807 22.5 28.9807C22.7235 28.9807 22.9048 28.7935 22.9048 28.5774V26.4468C23.3764 26.2777 23.7143 25.8214 23.7143 25.285C23.7143 24.6047 23.1706 24.0531 22.5 24.0531C21.8294 24.0531 21.2857 24.6047 21.2857 25.285C21.2857 25.8214 21.6236 26.2777 22.0952 26.4468ZM16.4286 19.9469V17.0718C16.4286 13.6697 19.1468 10.913 22.5 10.913C25.8463 10.913 28.5714 13.6704 28.5714 17.0718V19.9469C29.9145 19.9507 31 21.0558 31 22.4184V30.6154C31 31.9892 29.9095 33.0869 28.5643 33.0869H16.4357C15.0893 33.0869 14 31.9804 14 30.6154V22.4184C14 21.047 15.0867 19.9507 16.4286 19.9469ZM18.8571 19.9468V17.0731C18.8571 15.0269 20.4881 13.3768 22.5 13.3768C24.5078 13.3768 26.1429 15.0317 26.1429 17.0731V19.9468H18.8571Z" fill="#6942D0"/>
</svg>
