<svg width="25" height="25" viewBox="0 0 25 25" fill="none" xmlns="http://www.w3.org/2000/svg">
<circle cx="12.5" cy="12.5" r="12.5" fill="#D9D9D9"/>
<g clip-path="url(#clip0_79_434)">
<path d="M19.6511 10.8752C19.6244 10.79 19.5724 10.715 19.502 10.6602C19.4316 10.6054 19.3461 10.5734 19.257 10.5685L19.249 10.568L15.3273 10.2836C15.1299 10.2672 14.9408 10.1968 14.7808 10.08C14.6207 9.96329 14.4959 9.80473 14.42 9.62175L12.9254 5.9868C12.8909 5.90258 12.832 5.83055 12.7564 5.77988C12.6808 5.72921 12.5918 5.70219 12.5008 5.70227C12.4098 5.70235 12.3208 5.72952 12.2453 5.78032C12.1698 5.83111 12.1111 5.90325 12.0767 5.98752L10.5784 9.62698C10.5028 9.81113 10.3773 9.9705 10.216 10.0871C10.0547 10.2038 9.86403 10.2731 9.66548 10.2872L5.74233 10.5716C5.65322 10.577 5.56788 10.6095 5.49767 10.6646C5.42745 10.7197 5.37569 10.7949 5.34927 10.8802C5.31875 10.9651 5.31475 11.0573 5.33781 11.1445C5.36086 11.2317 5.40989 11.3099 5.47838 11.3686L8.50023 13.8665C8.65426 13.9949 8.76935 14.1638 8.83251 14.3541C8.89567 14.5445 8.9044 14.7486 8.8577 14.9437L7.92726 18.7462C7.9075 18.8093 7.90318 18.8763 7.91467 18.9415C7.92616 19.0066 7.95312 19.0681 7.99329 19.1207C8.03448 19.1746 8.08732 19.2186 8.14787 19.2492C8.20841 19.2799 8.2751 19.2965 8.34296 19.2977C8.4232 19.2979 8.50159 19.2736 8.56774 19.2282L8.5815 19.2193L11.8937 17.1589C12.062 17.0533 12.2564 16.9968 12.455 16.9959C12.6536 16.9949 12.8485 17.0496 13.0178 17.1536L16.3825 19.2215C16.4494 19.2676 16.5283 19.293 16.6095 19.2946C16.6727 19.2928 16.7347 19.2771 16.7911 19.2484C16.8475 19.2197 16.8967 19.1789 16.9354 19.1288C16.9798 19.0728 17.0108 19.0074 17.0262 18.9376C17.0415 18.8678 17.0407 18.7954 17.0239 18.726L16.098 14.9443C16.0506 14.7479 16.0595 14.5421 16.1237 14.3505C16.188 14.1589 16.3049 13.9893 16.4611 13.8612L19.5217 11.3616C19.59 11.3032 19.639 11.2254 19.6621 11.1385C19.6852 11.0517 19.6813 10.9598 19.6511 10.8752Z" fill="white"/>
</g>
<defs>
<clipPath id="clip0_79_434">
<rect width="14.6552" height="14.6552" fill="white" transform="translate(5.17242 5.17241)"/>
</clipPath>
</defs>
</svg>
