<svg width="21" height="21" viewBox="0 0 21 21" fill="none" xmlns="http://www.w3.org/2000/svg">
<g clip-path="url(#clip0_62_35)">
<path d="M16.7725 19.0086H0.566691C0.19376 19.0086 -0.0774299 18.6545 0.0199667 18.2942L3.70076 8.20298C3.76738 7.95604 3.9915 7.78442 4.24748 7.78442H20.4533C20.8263 7.78442 21.0001 8.1407 21.0001 8.49879L17.3193 18.59C17.2526 18.8369 17.0285 19.0086 16.7725 19.0086Z" fill="#F5F5F5"/>
<path d="M18.2005 4.52582H9.05172L7.24138 1.99133H0.627103C0.280966 1.99133 0 2.27194 0 2.61844V18.0889C0.0249828 18.0896 0.0499655 18.0911 0.0742241 18.0925L3.70034 8.20299C3.76697 7.9557 3.99109 7.78444 4.24707 7.78444H18.8276V5.15292C18.8276 4.80642 18.5466 4.52582 18.2005 4.52582Z" fill="white"/>
</g>
<defs>
<clipPath id="clip0_62_35">
<rect width="21" height="21" fill="white"/>
</clipPath>
</defs>
</svg>
