<svg width="20" height="21" viewBox="0 0 20 21" fill="none" xmlns="http://www.w3.org/2000/svg">
<path d="M7.01246 13.8804C6.04163 14.6429 5.41663 15.8262 5.41663 17.1554V18.4054H2.91663C2.22496 18.4054 1.66663 17.8471 1.66663 17.1554V16.3221C1.66663 14.7096 2.97079 13.4054 4.58329 13.4054H5.41663C6.00829 13.4054 6.55413 13.5804 7.01246 13.8804Z" fill="#7A7A7A"/>
<path d="M15 13.4054C16.0355 13.4054 16.875 12.5659 16.875 11.5304C16.875 10.4949 16.0355 9.6554 15 9.6554C13.9645 9.6554 13.125 10.4949 13.125 11.5304C13.125 12.5659 13.9645 13.4054 15 13.4054Z" fill="#7A7A7A"/>
<path d="M5 13.4054C6.03553 13.4054 6.875 12.5659 6.875 11.5304C6.875 10.4949 6.03553 9.6554 5 9.6554C3.96447 9.6554 3.125 10.4949 3.125 11.5304C3.125 12.5659 3.96447 13.4054 5 13.4054Z" fill="#7A7A7A"/>
<path d="M18.3334 16.3221V17.1554C18.3334 17.8471 17.775 18.4054 17.0834 18.4054H14.5834V17.1554C14.5834 15.8262 13.9584 14.6429 12.9875 13.8804C13.4459 13.5804 13.9917 13.4054 14.5834 13.4054H15.4167C17.0292 13.4054 18.3334 14.7096 18.3334 16.3221Z" fill="#7A7A7A"/>
<path d="M10 13.822C11.2657 13.822 12.2917 12.796 12.2917 11.5304C12.2917 10.2647 11.2657 9.23871 10 9.23871C8.73439 9.23871 7.70837 10.2647 7.70837 11.5304C7.70837 12.796 8.73439 13.822 10 13.822Z" fill="#7A7A7A"/>
<path d="M10.4167 13.8221H9.58333C7.74542 13.8221 6.25 15.3175 6.25 17.1554V18.4054C6.25 19.0946 6.81083 19.6554 7.5 19.6554H12.5C13.1892 19.6554 13.75 19.0946 13.75 18.4054V17.1554C13.75 15.3175 12.2546 13.8221 10.4167 13.8221Z" fill="#7A7A7A"/>
<path d="M16.0416 7.85706L15.0362 8.21456C14.7508 8.31581 14.4529 8.09956 14.4612 7.79664L14.4904 6.72998L13.8395 5.88414C13.6549 5.64414 13.7687 5.29373 14.0591 5.20789L15.0829 4.90623L15.6862 4.02581C15.8574 3.77623 16.2258 3.77623 16.397 4.02581L17.0004 4.90623L18.0241 5.20789C18.3145 5.29331 18.4283 5.64414 18.2437 5.88414L17.5929 6.72998L17.622 7.79664C17.6304 8.09914 17.332 8.31581 17.047 8.21456L16.0416 7.85706Z" fill="#7A7A7A"/>
<path d="M3.95836 7.85706L2.95294 8.21456C2.66752 8.31581 2.36961 8.09956 2.37794 7.79664L2.40711 6.72998L1.75627 5.88414C1.57169 5.64414 1.68544 5.29373 1.97586 5.20789L2.99961 4.90623L3.60294 4.02581C3.77419 3.77623 4.14252 3.77623 4.31377 4.02581L4.91711 4.90623L5.94086 5.20789C6.23127 5.29331 6.34502 5.64414 6.16044 5.88414L5.50961 6.72998L5.53877 7.79664C5.54711 8.09914 5.24877 8.31581 4.96377 8.21456L3.95836 7.85706Z" fill="#7A7A7A"/>
<path d="M9.99998 6.91953L8.8079 7.34328C8.46957 7.4637 8.11623 7.20662 8.12623 6.84787L8.16082 5.58328L7.38915 4.58037C7.1704 4.29578 7.3054 3.88037 7.64957 3.7787L8.86332 3.42078L9.57873 2.37703C9.78165 2.08078 10.2187 2.08078 10.4216 2.37703L11.1371 3.42078L12.3508 3.7787C12.695 3.88037 12.83 4.29578 12.6112 4.58037L11.8396 5.58328L11.8741 6.84787C11.8841 7.20662 11.5304 7.4637 11.1925 7.34328L9.99998 6.91953Z" fill="#7A7A7A"/>
</svg>
