<svg width="102" height="17" viewBox="0 0 102 17" fill="none" xmlns="http://www.w3.org/2000/svg">
<g clip-path="url(#clip0_98_506)">
<path fill-rule="evenodd" clip-rule="evenodd" d="M8.99995 14.27L13.15 16.78C13.91 17.24 14.8399 16.56 14.6399 15.7L13.54 10.98L17.2099 7.80001C17.8799 7.22001 17.5199 6.12001 16.6399 6.05001L11.81 5.64001L9.91995 1.18001C9.57995 0.37001 8.41995 0.37001 8.07995 1.18001L6.18995 5.63001L1.35995 6.04001C0.479951 6.11001 0.119951 7.21001 0.789951 7.79001L4.45995 10.97L3.35995 15.69C3.15995 16.55 4.08995 17.23 4.84995 16.77L8.99995 14.27Z" fill="#FF960C"/>
</g>
<g clip-path="url(#clip1_98_506)">
<path fill-rule="evenodd" clip-rule="evenodd" d="M30 14.27L34.15 16.78C34.91 17.24 35.8399 16.56 35.6399 15.7L34.54 10.98L38.2099 7.80001C38.8799 7.22001 38.5199 6.12001 37.6399 6.05001L32.81 5.64001L30.92 1.18001C30.58 0.37001 29.42 0.37001 29.08 1.18001L27.1899 5.63001L22.36 6.04001C21.48 6.11001 21.12 7.21001 21.79 7.79001L25.46 10.97L24.36 15.69C24.16 16.55 25.09 17.23 25.85 16.77L30 14.27Z" fill="#FF960C"/>
</g>
<g clip-path="url(#clip2_98_506)">
<path fill-rule="evenodd" clip-rule="evenodd" d="M51 14.27L55.15 16.78C55.91 17.24 56.8399 16.56 56.6399 15.7L55.54 10.98L59.2099 7.80001C59.8799 7.22001 59.5199 6.12001 58.6399 6.05001L53.81 5.64001L51.92 1.18001C51.58 0.37001 50.42 0.37001 50.08 1.18001L48.1899 5.63001L43.36 6.04001C42.48 6.11001 42.12 7.21001 42.79 7.79001L46.46 10.97L45.36 15.69C45.16 16.55 46.09 17.23 46.85 16.77L51 14.27Z" fill="#FF960C"/>
</g>
<g clip-path="url(#clip3_98_506)">
<path fill-rule="evenodd" clip-rule="evenodd" d="M72 14.27L76.15 16.78C76.91 17.24 77.8399 16.56 77.6399 15.7L76.54 10.98L80.2099 7.80001C80.8799 7.22001 80.5199 6.12001 79.6399 6.05001L74.81 5.64001L72.92 1.18001C72.58 0.37001 71.42 0.37001 71.08 1.18001L69.1899 5.63001L64.36 6.04001C63.48 6.11001 63.12 7.21001 63.79 7.79001L67.46 10.97L66.36 15.69C66.16 16.55 67.09 17.23 67.85 16.77L72 14.27Z" fill="#FF960C"/>
</g>
<g clip-path="url(#clip4_98_506)">
<path fill-rule="evenodd" clip-rule="evenodd" d="M93 14.27L97.15 16.78C97.91 17.24 98.8399 16.56 98.6399 15.7L97.54 10.98L101.21 7.80001C101.88 7.22001 101.52 6.12001 100.64 6.05001L95.81 5.64001L93.92 1.18001C93.58 0.37001 92.42 0.37001 92.08 1.18001L90.1899 5.63001L85.36 6.04001C84.48 6.11001 84.12 7.21001 84.79 7.79001L88.46 10.97L87.36 15.69C87.16 16.55 88.09 17.23 88.85 16.77L93 14.27Z" fill="#FF960C"/>
</g>
<defs>
<clipPath id="clip0_98_506">
<rect width="18" height="17" fill="white"/>
</clipPath>
<clipPath id="clip1_98_506">
<rect width="18" height="17" fill="white" transform="translate(21)"/>
</clipPath>
<clipPath id="clip2_98_506">
<rect width="18" height="17" fill="white" transform="translate(42)"/>
</clipPath>
<clipPath id="clip3_98_506">
<rect width="18" height="17" fill="white" transform="translate(63)"/>
</clipPath>
<clipPath id="clip4_98_506">
<rect width="18" height="17" fill="white" transform="translate(84)"/>
</clipPath>
</defs>
</svg>
