<svg width="28" height="28" viewBox="0 0 28 28" fill="none" xmlns="http://www.w3.org/2000/svg">
<rect x="0.5" y="0.5" width="26.8351" height="26.776" rx="13.388" fill="white" stroke="white"/>
<path fill-rule="evenodd" clip-rule="evenodd" d="M11.2778 15.5556H11.8922L12.11 15.3456C11.3478 14.4589 10.8889 13.3078 10.8889 12.0556C10.8889 9.26333 13.1522 7 15.9444 7C18.7367 7 21 9.26333 21 12.0556C21 14.8478 18.7367 17.1111 15.9444 17.1111C14.6922 17.1111 13.5411 16.6522 12.6544 15.89L12.4444 16.1078V16.7222L8.55556 20.6033L7.39667 19.4444L11.2778 15.5556ZM15.9444 15.5556C17.8811 15.5556 19.4444 13.9922 19.4444 12.0556C19.4444 10.1189 17.8811 8.55556 15.9444 8.55556C14.0078 8.55556 12.4444 10.1189 12.4444 12.0556C12.4444 13.9922 14.0078 15.5556 15.9444 15.5556Z" fill="#6942D0"/>
</svg>
