<svg width="16" height="16" viewBox="0 0 16 16" fill="none" xmlns="http://www.w3.org/2000/svg">
<path fill-rule="evenodd" clip-rule="evenodd" d="M4.56489 10.0629H5.28759L5.54374 9.81589C4.64723 8.77301 4.10749 7.4191 4.10749 5.94625C4.10749 2.66209 6.76958 0 10.0537 0C13.3379 0 16 2.66209 16 5.94625C16 9.23042 13.3379 11.8925 10.0537 11.8925C8.5809 11.8925 7.22699 11.3528 6.18411 10.4563L5.93711 10.7124V11.4351L1.36306 16L0 14.6369L4.56489 10.0629ZM10.0537 10.0629C12.3316 10.0629 14.1704 8.22413 14.1704 5.94625C14.1704 3.66838 12.3316 1.82962 10.0537 1.82962C7.77587 1.82962 5.93711 3.66838 5.93711 5.94625C5.93711 8.22413 7.77587 10.0629 10.0537 10.0629Z" fill="white"/>
</svg>
