<svg width="7" height="7" viewBox="0 0 7 7" fill="none" xmlns="http://www.w3.org/2000/svg">
<path d="M0.114711 2.96436L2.91875 0.120086C3.07724 -0.0400287 3.33489 -0.0400287 3.49338 0.120086C3.65227 0.280201 3.65227 0.540286 3.49338 0.700401L0.97543 3.25452L3.49338 5.80863C3.65227 5.96875 3.65227 6.22883 3.49338 6.38895C3.33448 6.54906 3.07724 6.54906 2.91875 6.38895L0.115118 3.54467C-0.0380881 3.39065 -0.0384951 3.11878 0.114711 2.96436Z" fill="#7A7A7A"/>
<path d="M2.95944 2.96436L5.76307 0.120086C5.92197 -0.0400287 6.17921 -0.0400287 6.3377 0.120086C6.49659 0.280201 6.49659 0.540286 6.3377 0.700401L3.82016 3.25452L6.3381 5.80863C6.497 5.96875 6.497 6.22883 6.3381 6.38895C6.17921 6.54906 5.92197 6.54906 5.76348 6.38895L2.95984 3.54467C2.80664 3.39065 2.80623 3.11878 2.95944 2.96436Z" fill="#7A7A7A"/>
</svg>
