<svg width="20" height="20" viewBox="0 0 20 20" fill="none" xmlns="http://www.w3.org/2000/svg">
<path d="M13.3333 1.66669H6.66659C4.83325 1.66669 3.33325 3.16669 3.33325 5.00002V15C3.33325 16.8334 4.83325 18.3334 6.66659 18.3334H13.3333C15.1666 18.3334 16.6666 16.8334 16.6666 15V13.3334H14.9999V15C14.9999 15.9167 14.2499 16.6667 13.3333 16.6667H6.66659C5.74992 16.6667 4.99992 15.9167 4.99992 15V5.00002C4.99992 4.08335 5.74992 3.33335 6.66659 3.33335H13.3333C14.2499 3.33335 14.9999 4.08335 14.9999 5.00002V6.66669H16.6666V5.00002C16.6666 3.16669 15.1666 1.66669 13.3333 1.66669Z" fill="white"/>
<path d="M16.6667 10L13.3333 7.5V9.16667H7.5V10.8333H13.3333V12.5L16.6667 10Z" fill="white"/>
</svg>
