<svg width="20" height="20" viewBox="0 0 20 20" fill="none" xmlns="http://www.w3.org/2000/svg">
<path d="M4.47313 11.2686C4.14412 11.8549 3.61569 12.3038 2.98385 12.5336C2.35202 12.7634 1.65871 12.7589 1.02991 12.5209V18.5443C1.03006 18.6475 1.07111 18.7464 1.14408 18.8194C1.21704 18.8923 1.31596 18.9334 1.41914 18.9335H4.11724C4.22042 18.9334 4.31934 18.8923 4.3923 18.8194C4.46526 18.7464 4.50632 18.6475 4.50647 18.5443V11.2771C4.50649 11.2732 4.50518 11.2693 4.50276 11.2662C4.50034 11.2631 4.49695 11.2608 4.49312 11.2599C4.48929 11.2589 4.48524 11.2592 4.48162 11.2608C4.478 11.2624 4.47501 11.2651 4.47313 11.2686Z" fill="#7A7A7A"/>
<path d="M7.22312 6.58821L5.85107 7.98061V18.5443C5.85122 18.6475 5.89228 18.7464 5.96525 18.8194C6.03821 18.8923 6.13712 18.9334 6.24031 18.9336H8.9384C9.04158 18.9334 9.1405 18.8923 9.21346 18.8194C9.28643 18.7464 9.32748 18.6475 9.32764 18.5443V7.16588L8.74909 6.58688C8.25013 6.72687 7.72233 6.72733 7.22312 6.58821Z" fill="#7A7A7A"/>
<path d="M10.6722 10.4819V18.5443C10.6724 18.6475 10.7134 18.7464 10.7864 18.8194C10.8594 18.8923 10.9583 18.9334 11.0615 18.9336H13.7596C13.8628 18.9334 13.9617 18.8923 14.0346 18.8194C14.1076 18.7464 14.1487 18.6475 14.1488 18.5443V10.6287C13.6374 10.9992 13.0159 11.1863 12.385 11.1596C11.7541 11.133 11.1506 10.8942 10.6722 10.4819Z" fill="#7A7A7A"/>
<path d="M17.2105 5.58371L15.4934 7.30076V18.5443C15.4936 18.6475 15.5346 18.7464 15.6076 18.8194C15.6805 18.8923 15.7795 18.9334 15.8826 18.9335H18.5807C18.6839 18.9334 18.7828 18.8923 18.8558 18.8194C18.9288 18.7464 18.9698 18.6475 18.97 18.5443V5.50851C18.4067 5.72177 17.7898 5.74814 17.2105 5.58371Z" fill="#7A7A7A"/>
<path d="M17.9757 1.06647C17.649 1.06621 17.3283 1.15427 17.0475 1.32133C16.7667 1.48838 16.5362 1.72823 16.3805 2.01549C16.2248 2.30275 16.1497 2.62675 16.163 2.95322C16.1763 3.27968 16.2776 3.59648 16.4562 3.8701L13.4931 6.83323C13.1936 6.63751 12.8428 6.53498 12.4851 6.53861C12.1273 6.54223 11.7787 6.65184 11.4833 6.85359L9.50299 4.87301C9.68153 4.59927 9.78281 4.28238 9.79613 3.95582C9.80945 3.62927 9.73431 3.30519 9.57865 3.01781C9.42299 2.73044 9.1926 2.49045 8.91181 2.3232C8.63102 2.15595 8.31027 2.06765 7.98345 2.06764C7.65662 2.06763 7.33586 2.15591 7.05507 2.32314C6.77427 2.49037 6.54386 2.73034 6.38818 3.01771C6.2325 3.30507 6.15734 3.62915 6.17064 3.9557C6.18393 4.28226 6.28519 4.59915 6.46371 4.87291L3.01334 8.3735C2.63696 8.12828 2.18308 8.03119 1.73931 8.10097C1.29555 8.17075 0.893371 8.40246 0.61042 8.75137C0.327469 9.10027 0.183809 9.54163 0.207173 9.99024C0.230537 10.4388 0.419268 10.8629 0.736933 11.1805C1.0546 11.4981 1.47867 11.6868 1.92728 11.7101C2.37589 11.7334 2.81723 11.5897 3.1661 11.3067C3.51497 11.0237 3.74663 10.6215 3.81636 10.1778C3.88608 9.73398 3.78893 9.28011 3.54366 8.90376L6.99397 5.40327C7.28813 5.59557 7.63194 5.69799 7.98337 5.69799C8.33481 5.69799 8.67862 5.59557 8.97277 5.40327L10.964 7.39475C10.7919 7.67076 10.6972 7.98796 10.6898 8.31314C10.6823 8.63831 10.7625 8.9595 10.9218 9.24309C11.081 9.52668 11.3136 9.76223 11.5952 9.92509C11.8767 10.0879 12.1969 10.1721 12.5221 10.1688C12.8474 10.1655 13.1657 10.0748 13.4439 9.90623C13.7221 9.73766 13.9498 9.49742 14.1033 9.21064C14.2567 8.92386 14.3303 8.6011 14.3162 8.27615C14.3022 7.95119 14.201 7.63599 14.0234 7.36355L16.9866 4.40033C17.2232 4.55437 17.4925 4.65105 17.773 4.68268C18.0536 4.7143 18.3377 4.67999 18.6026 4.58248C18.8676 4.48497 19.1061 4.32696 19.2993 4.12101C19.4924 3.91507 19.6348 3.66688 19.7151 3.39621C19.7954 3.12554 19.8114 2.83985 19.7619 2.5619C19.7123 2.28395 19.5985 2.02141 19.4296 1.79517C19.2607 1.56893 19.0413 1.38525 18.7889 1.25874C18.5365 1.13223 18.2581 1.06639 17.9757 1.06647Z" fill="#7A7A7A"/>
</svg>
