<svg width="21" height="21" viewBox="0 0 21 21" fill="none" xmlns="http://www.w3.org/2000/svg">
<g clip-path="url(#clip0_62_48)">
<path d="M11.6629 8.06648H6.93104C6.86878 8.06648 6.80907 8.04175 6.76504 7.99772C6.72101 7.95369 6.69628 7.89398 6.69628 7.83172C6.69628 7.76946 6.72101 7.70974 6.76504 7.66572C6.80907 7.62169 6.86878 7.59696 6.93104 7.59696H11.3812C11.2755 7.38311 11.1814 7.16367 11.0995 6.93962H6.93104C6.86878 6.93962 6.80907 6.91489 6.76504 6.87086C6.72101 6.82683 6.69628 6.76712 6.69628 6.70486C6.69628 6.64259 6.72101 6.58288 6.76504 6.53885C6.80907 6.49483 6.86878 6.47009 6.93104 6.47009H10.9549C10.8485 6.05887 10.7961 5.63557 10.799 5.21083C10.7939 4.44361 10.9658 3.68555 11.3014 2.99561H2.52783C2.43849 2.99626 2.35021 3.01497 2.26828 3.0506C2.18635 3.08623 2.11247 3.13806 2.05107 3.20296C1.98967 3.26787 1.94203 3.34451 1.911 3.4283C1.87997 3.51208 1.86619 3.60126 1.8705 3.6905V17.1753H11.5502C11.7869 17.1689 12.0177 17.2494 12.1991 17.4016C12.2365 17.4295 12.2711 17.461 12.3024 17.4955L12.3306 17.5039C12.4834 17.6786 12.5705 17.9011 12.5766 18.1331V19.1717C12.5766 19.7802 12.9522 20.6488 13.4218 20.6488V20.6366C13.233 20.6333 13.0467 20.5928 12.8736 20.5173C12.7005 20.4418 12.544 20.3329 12.4132 20.1968C12.2823 20.0607 12.1796 19.9 12.1109 19.7241C12.0423 19.5482 12.0091 19.3605 12.0132 19.1717V18.134C12.0073 18.0327 11.9665 17.9364 11.8977 17.8617C11.8792 17.8529 11.8613 17.8428 11.8442 17.8317C11.7609 17.7656 11.6564 17.7323 11.5502 17.7378H0.788709C0.734489 17.7342 0.680109 17.7417 0.628916 17.7599C0.577723 17.7782 0.530801 17.8067 0.491039 17.8437C0.451277 17.8807 0.419516 17.9255 0.397713 17.9753C0.375909 18.0251 0.364524 18.0788 0.364258 18.1331V19.1426C0.364248 19.5393 0.521126 19.9199 0.800666 20.2014C1.08021 20.4828 1.45972 20.6423 1.85641 20.6451H13.4171C13.7517 20.6495 14.0774 20.5373 14.3383 20.3277C14.5165 20.1908 14.6613 20.0154 14.762 19.8145C14.8627 19.6137 14.9165 19.3926 14.9196 19.1679V10.2094C14.2607 10.0889 13.6329 9.83713 13.0734 9.46898C12.5139 9.10083 12.0342 8.62387 11.6629 8.06648ZM4.26883 6.20434C4.51629 6.20428 4.75711 6.28433 4.95528 6.43253L4.11013 7.27768L3.95801 7.09832C3.93817 7.06721 3.9119 7.04071 3.88096 7.0206C3.85002 7.0005 3.81513 6.98726 3.77864 6.98177C3.74215 6.97629 3.70491 6.97868 3.66943 6.9888C3.63395 6.99892 3.60104 7.01653 3.57294 7.04044C3.54483 7.06434 3.52218 7.094 3.50649 7.1274C3.49081 7.1608 3.48247 7.19717 3.48203 7.23407C3.48159 7.27096 3.48907 7.30752 3.50395 7.34129C3.51883 7.37505 3.54077 7.40524 3.5683 7.42981L3.90166 7.82421C3.92461 7.85218 3.95319 7.87501 3.98555 7.89119C4.01792 7.90737 4.05333 7.91654 4.08947 7.91811H4.0998C4.13452 7.91866 4.16901 7.9123 4.20125 7.89941C4.23349 7.88651 4.26285 7.86733 4.28761 7.84299L5.29146 6.82693C5.40679 7.05003 5.446 7.30473 5.40312 7.55219C5.36024 7.79965 5.23762 8.0263 5.05394 8.19759C4.87027 8.36888 4.63562 8.47541 4.38577 8.50093C4.13593 8.52646 3.88458 8.46959 3.67006 8.33899C3.45554 8.20838 3.28962 8.01122 3.19758 7.77754C3.10553 7.54387 3.09243 7.2865 3.16026 7.04469C3.22809 6.80287 3.37313 6.58987 3.57327 6.43815C3.77342 6.28643 4.01768 6.20433 4.26883 6.20434ZM4.26883 9.86664C4.51629 9.86657 4.75711 9.94663 4.95528 10.0948L4.11013 10.94L3.95801 10.7597C3.91344 10.7086 3.85058 10.6771 3.78299 10.672C3.7154 10.6668 3.6485 10.6885 3.59673 10.7322C3.54496 10.776 3.51247 10.8384 3.50627 10.9059C3.50008 10.9734 3.52067 11.0406 3.56361 11.093L3.89697 11.4874C3.91991 11.5154 3.9485 11.5382 3.98086 11.5544C4.01322 11.5706 4.04863 11.5798 4.08478 11.5814H4.09511C4.12992 11.5819 4.16449 11.5755 4.19675 11.5624C4.22902 11.5494 4.25833 11.5299 4.28292 11.5053L5.29615 10.4921C5.41149 10.7152 5.4507 10.9698 5.40782 11.2173C5.36494 11.4648 5.24231 11.6914 5.05864 11.8627C4.87496 12.034 4.64032 12.1405 4.39047 12.166C4.14062 12.1916 3.88928 12.1347 3.67476 12.0041C3.46024 11.8735 3.29431 11.6763 3.20227 11.4427C3.11023 11.209 3.09712 10.9516 3.16495 10.7098C3.23278 10.468 3.37783 10.255 3.57797 10.1033C3.77811 9.95155 4.02238 9.86944 4.27353 9.86946L4.26883 9.86664ZM4.26883 15.8343C4.08649 15.8346 3.9067 15.7915 3.74426 15.7087C3.58182 15.6258 3.44138 15.5056 3.3345 15.3578C3.22762 15.2101 3.15737 15.0391 3.12951 14.8589C3.10166 14.6787 3.11701 14.4945 3.17429 14.3213C3.23158 14.1482 3.32916 13.9912 3.45901 13.8632C3.58886 13.7352 3.74726 13.6398 3.92116 13.585C4.09507 13.5302 4.27951 13.5175 4.4593 13.5479C4.63909 13.5783 4.80908 13.651 4.95528 13.7599L4.11013 14.6051L3.95801 14.4257C3.93631 14.3992 3.90955 14.3773 3.8793 14.3612C3.84905 14.3452 3.8159 14.3353 3.78179 14.3322C3.74768 14.329 3.71328 14.3327 3.68061 14.343C3.64794 14.3533 3.61764 14.37 3.59148 14.3921C3.56532 14.4142 3.54382 14.4413 3.52823 14.4718C3.51264 14.5023 3.50328 14.5356 3.50068 14.5698C3.49809 14.6039 3.50232 14.6382 3.51312 14.6707C3.52392 14.7033 3.54108 14.7333 3.56361 14.7591L3.89697 15.1535C3.91991 15.1815 3.9485 15.2043 3.98086 15.2205C4.01322 15.2367 4.04863 15.2458 4.08478 15.2474H4.09511C4.12983 15.248 4.16431 15.2416 4.19656 15.2287C4.2288 15.2158 4.25815 15.1966 4.28292 15.1723L5.29615 14.159C5.38744 14.3345 5.43192 14.5305 5.42529 14.7281C5.41867 14.9258 5.36117 15.1183 5.25834 15.2873C5.15552 15.4562 5.01086 15.5957 4.83834 15.6924C4.66582 15.789 4.47128 15.8395 4.27353 15.839L4.26883 15.8343ZM12.7579 15.3892H6.93574C6.87348 15.3892 6.81376 15.3645 6.76974 15.3204C6.72571 15.2764 6.70098 15.2167 6.70098 15.1544C6.70098 15.0922 6.72571 15.0325 6.76974 14.9884C6.81376 14.9444 6.87348 14.9197 6.93574 14.9197H12.7579C12.8201 14.9197 12.8798 14.9444 12.9239 14.9884C12.9679 15.0325 12.9926 15.0922 12.9926 15.1544C12.9926 15.2167 12.9679 15.2764 12.9239 15.3204C12.8798 15.3645 12.8201 15.3892 12.7579 15.3892ZM12.7579 14.2623H6.93574C6.87348 14.2623 6.81376 14.2376 6.76974 14.1936C6.72571 14.1496 6.70098 14.0898 6.70098 14.0276C6.70098 13.9653 6.72571 13.9056 6.76974 13.8616C6.81376 13.8175 6.87348 13.7928 6.93574 13.7928H12.7579C12.8201 13.7928 12.8798 13.8175 12.9239 13.8616C12.9679 13.9056 12.9926 13.9653 12.9926 14.0276C12.9926 14.0898 12.9679 14.1496 12.9239 14.1936C12.8798 14.2376 12.8201 14.2623 12.7579 14.2623ZM12.7579 11.7269H6.93574C6.87348 11.7269 6.81376 11.7022 6.76974 11.6581C6.72571 11.6141 6.70098 11.5544 6.70098 11.4921C6.70098 11.4299 6.72571 11.3702 6.76974 11.3261C6.81376 11.2821 6.87348 11.2574 6.93574 11.2574H12.7579C12.8201 11.2574 12.8798 11.2821 12.9239 11.3261C12.9679 11.3702 12.9926 11.4299 12.9926 11.4921C12.9926 11.5544 12.9679 11.6141 12.9239 11.6581C12.8798 11.7022 12.8201 11.7269 12.7579 11.7269ZM12.9926 10.3653C12.9927 10.3961 12.9868 10.4267 12.975 10.4553C12.9632 10.4838 12.946 10.5097 12.9241 10.5316C12.9023 10.5534 12.8764 10.5707 12.8478 10.5824C12.8193 10.5942 12.7887 10.6002 12.7579 10.6H6.93574C6.87348 10.6 6.81376 10.5753 6.76974 10.5313C6.72571 10.4873 6.70098 10.4275 6.70098 10.3653C6.70098 10.303 6.72571 10.2433 6.76974 10.1993C6.81376 10.1553 6.87348 10.1305 6.93574 10.1305H12.7579C12.7889 10.1304 12.8196 10.1364 12.8483 10.1483C12.8769 10.1602 12.903 10.1776 12.9248 10.1997C12.9467 10.2217 12.9639 10.2478 12.9755 10.2766C12.9872 10.3053 12.993 10.3361 12.9926 10.3672V10.3653Z" fill="white"/>
<path d="M15.8811 0.633911C14.9758 0.633725 14.0908 0.902 13.338 1.40481C12.5852 1.90761 11.9985 2.62237 11.6519 3.45868C11.3053 4.29499 11.2146 5.21529 11.3911 6.10319C11.5676 6.99109 12.0034 7.80671 12.6434 8.4469C13.2835 9.08708 14.099 9.52309 14.9869 9.69977C15.8748 9.87645 16.7951 9.78586 17.6315 9.43947C18.4678 9.09308 19.1827 8.50645 19.6857 7.75375C20.1886 7.00106 20.4571 6.11612 20.4571 5.21085C20.4571 3.99713 19.975 2.83311 19.1169 1.9748C18.2587 1.11648 17.0948 0.63416 15.8811 0.633911ZM16.1403 5.82686C16.1407 5.83092 16.1407 5.83502 16.1403 5.83907C16.1378 5.88623 16.1223 5.93178 16.0956 5.97075C16.069 6.00971 16.0321 6.04058 15.989 6.05998C15.946 6.07937 15.8984 6.08655 15.8515 6.08071C15.8047 6.07487 15.7603 6.05625 15.7233 6.02688L15.7149 6.02031L14.3673 4.8756L14.2594 4.7817C14.2334 4.75986 14.2121 4.73309 14.1966 4.70294C14.181 4.6728 14.1716 4.63987 14.1689 4.60607C14.1662 4.57227 14.1703 4.53827 14.1808 4.50604C14.1913 4.4738 14.2081 4.44398 14.2302 4.41829C14.2497 4.39261 14.2744 4.37129 14.3026 4.35569C14.3308 4.3401 14.3619 4.33059 14.394 4.32776C14.4261 4.32493 14.4585 4.32884 14.489 4.33926C14.5195 4.34968 14.5475 4.36636 14.5711 4.38824L15.5815 5.26719V2.57587C15.5815 2.50115 15.6112 2.4295 15.6641 2.37667C15.7169 2.32383 15.7885 2.29415 15.8633 2.29415C15.938 2.29415 16.0096 2.32383 16.0625 2.37667C16.1153 2.4295 16.145 2.50115 16.145 2.57587L16.1403 5.82686Z" fill="white"/>
</g>
<defs>
<clipPath id="clip0_62_48">
<rect width="21" height="21" fill="white"/>
</clipPath>
</defs>
</svg>
